<svg id="Layer_1" data-name="Layer 1" xmlns="http://www.w3.org/2000/svg" xmlns:xlink="http://www.w3.org/1999/xlink" viewBox="0 0 715.51 257.64"><defs><style>.cls-1,.cls-2,.cls-5{fill:none;}.cls-2,.cls-5{stroke:#1a1a18;}.cls-2{stroke-miterlimit:22.93;stroke-width:0.22px;}.cls-3{clip-path:url(#clip-path);}.cls-4{fill:url(#linear-gradient);}.cls-5{stroke-linecap:round;stroke-linejoin:round;stroke-width:1.42px;}</style><clipPath id="clip-path" transform="translate(0 -2)"><path class="cls-1" d="M683.63,85.36a212.69,212.69,0,0,1-11.34,19.43c-4.34,6.67-9.24,13.54-14.59,20.63s-10.32,13.39-15.15,19-9.37,10.62-13.61,14.85c-1.41,1.41-2.94,2.92-4.66,4.5s-3.68,3.34-5.87,5.26a35.12,35.12,0,0,1-5.73,4.19,11.46,11.46,0,0,1-4.79,1.71,1.62,1.62,0,0,1-1.72-1.07,7.31,7.31,0,0,1-.34-2.78c.25-6.29,2.17-13.7,5.74-22.16a194.07,194.07,0,0,1,15.57-28.68q10.38-16.19,23.11-25.07A57.66,57.66,0,0,1,678,84.59a10.32,10.32,0,0,1,3.6.39,13.56,13.56,0,0,0,2,.38m18.74-2.82H686.45a38.73,38.73,0,0,0-5.22-1.28,24.69,24.69,0,0,0-5.82-.52A79.64,79.64,0,0,0,617.9,109.5a116.21,116.21,0,0,0-17.29,26,63.09,63.09,0,0,0-6.33,24.86,29,29,0,0,0,.85,8.47,13.13,13.13,0,0,0,3.43,6.16,9.12,9.12,0,0,0,6.5,2.83c3.1,0,6.21-1.37,9.42-3.21a58.75,58.75,0,0,0,9.75-7.1c3.31-2.94,6.72-6.12,10.1-9.72,6-6.37,11.43-12.84,16.43-19.17s9.69-12.53,14-18.57,8.6-11.9,12.67-17.46c-2.74,6.12-5.55,12.12-8.43,17.93s-5.57,11.38-8,16.69a146.19,146.19,0,0,0-6,14.72,37.94,37.94,0,0,0-2.4,12,18.52,18.52,0,0,0,1.54,7.88,11.71,11.71,0,0,0,3.85,4.75,8.26,8.26,0,0,0,5.14,1.75,15.74,15.74,0,0,0,5.9-2.09,43.06,43.06,0,0,0,6.34-4.07,54.31,54.31,0,0,0,5.73-5.14c2.16-2.2,4.29-4.44,6.34-6.76s4.1-4.76,6-7.36c4.64-6.4,6.25-11.28,9.12-18.49.14-.36-6.62,9.29-8.61,12.59a64.23,64.23,0,0,1-4.84,6.84c-2.32,2.91-5.23,6.45-9,10.36-1.69,1.74-3.6,3.34-5.48,5s-3.68,3-5.31,4.2a9.3,9.3,0,0,1-3.59,1.88,1.17,1.17,0,0,1-1.24-.68,3.37,3.37,0,0,1-.3-1.63c0-1.5.75-4.2,2.14-8.09s3.27-8.69,5.6-14.21,4.91-11.47,7.7-17.8,5.7-12.62,8.56-18.91,5.57-12.16,8-17.59S700.7,86.31,702.37,82.54Zm-155.24-4.4c-7,8.44-10.76,7.07-21.19,25.6-6.26,16.8-13.84,30.19-19.69,50.06-1.57,5.33-1.8,12.44,1.54,25,3.85-16.48,9.95-28.7,19.88-47.89,8.12-1.35,15.12-.93,18.11,1.1,1.42,1,3,2.93,4.85,5.8s4.19,5.74,5.94,11.28c2.08,6.56,3.95,11.95,5.47,16.19a33.83,33.83,0,0,0,4.82,9.47A7.69,7.69,0,0,0,573.1,178a8.1,8.1,0,0,0,4-1.2c7.19-4.2,11-9,13.12-16.74l5.15-19.2c.9-3.38-4.89,8.58-7.31,17.4-1.06,3.86-2.81,8.29-7.22,9.72-1.16-.47-2.38-2.05-3.68-4.74A84.49,84.49,0,0,1,572.89,152c-1.51-4.81-3.4-7.53-4.92-10.89a20.9,20.9,0,0,0-7.34-8.93,28.75,28.75,0,0,0-6.67-3.57,15.8,15.8,0,0,0-5.87-1.19l.11-.92a61.72,61.72,0,0,0,13.1-6.81c5-3.79,9.17-10.87,12.08-14.51a60.84,60.84,0,0,1,8.08-8.58c2.45-2.07,4.71-3.51,6.83-3.67a5.2,5.2,0,0,1,3.33,1,3.69,3.69,0,0,1,1.55,2.23c.24.92.72,1.58.9,2.24l1.43,5.34c.93-.47,1.72-6.94,2.25-10.68.28-2,.3-3.49.44-4.78s.18-2.23.19-2.81A4.51,4.51,0,0,0,597,81.8a7.08,7.08,0,0,0-5-1.44,16.6,16.6,0,0,0-8.53,2.89,28.06,28.06,0,0,0-7.28,7.34c-2.36,3.28-5.3,6.53-8.32,10.08S562,108,558.49,111.8a45.64,45.64,0,0,1-7.59,6.93,30.46,30.46,0,0,1-8.41,3.88c-3,.88-8,.86-12.1,1.43C535.53,108.48,536.76,91.14,547.13,78.14ZM439.2,169.58q10-20.6,19.42-36.24a237.82,237.82,0,0,1,18.06-26.41c11.56-14.38,19.78-21.42,24.65-21.57a1.64,1.64,0,0,1,1.84,1.07,12.94,12.94,0,0,1,.47,4.58A84.81,84.81,0,0,1,501,108.56a236,236,0,0,1-7.1,22.76,166.51,166.51,0,0,1-9.59,22.34c-3.42,6.42-7,12-11,16.18a22.6,22.6,0,0,1-6.46,4.36,18.28,18.28,0,0,1-8.17,2.06,25.91,25.91,0,0,1-7.75-1.2,38.54,38.54,0,0,1-6.42-2.57C442.62,171.51,440.82,170.57,439.2,169.58ZM451,80.74c-15.88-3.2-31.21,40.41-35.21,52-1.95,5.65,23.9-50.13,32.64-48.37a5.56,5.56,0,0,1,2.22.64c.55.4.93.86.86,1.41a51.12,51.12,0,0,1-2.4,7c-1.44,3.81-3.38,8.9-5.77,15.15s-5.08,13.47-8.05,21.57-6,16.86-9.24,26.19-6.34,19-9.42,29-6.2,19.91-8.51,30c-.9,3.92-1.18,7.49-1.71,10.44s-1,5.65-1.33,8a45.32,45.32,0,0,0-.56,6.5,28.18,28.18,0,0,0,.56,4.92,57.56,57.56,0,0,0,1.5,6.12c1.28,4.37,2.56,6.93,3.85,7.71,1-.3,1.72-1.24,2.14-2.79a49,49,0,0,0,1.15-6c.34-2.39.93-5,1.59-7.91,2.12-9.36,4.06-17.68,6-24.91s3.69-13.51,5.56-18.74,3.8-9.94,5.65-14.43,3.72-8.55,5.65-12.28a43.38,43.38,0,0,0,5.95,3.17,46.64,46.64,0,0,0,7,2.4,22.28,22.28,0,0,0,7.32,1.11c8.12-.73,15.62-4.24,22.51-9.63s13.21-12.95,18.83-22.72a174.05,174.05,0,0,0,12.92-27c2.95-8.09,4.61-15.36,4.8-21.78a18.46,18.46,0,0,0-1.5-7.36,16.88,16.88,0,0,0-4.37-6.25,12.12,12.12,0,0,0-7-3.08,10.18,10.18,0,0,0-4.41.86,31,31,0,0,0-6.59,3.76,81.71,81.71,0,0,0-9,7.71,126.2,126.2,0,0,0-13,15.4,279.13,279.13,0,0,0-16,25q-8.8,15.15-19.22,36.64a17,17,0,0,1,1.28-5.65q1.23-3.15,2.83-7.19c4.28-10.74,8-19.77,11-27.18s5.56-13.48,7.49-18.27,3.36-8.64,4.28-11.51a24,24,0,0,0,1.32-7A12.91,12.91,0,0,0,463.07,87a11.23,11.23,0,0,0-4.53-4.45C456.53,81.47,453.94,81.34,451,80.74ZM393.66,81A11.63,11.63,0,0,1,396,83.1a14.65,14.65,0,0,1,2.27,3.68,13.57,13.57,0,0,1,1,5.17,17.81,17.81,0,0,1-1.45,6.77,40.25,40.25,0,0,1-2.91,9.67,59.7,59.7,0,0,1-5.82,10.1,24.47,24.47,0,0,1-8.05,7.79A22.08,22.08,0,0,1,370.81,129a11.89,11.89,0,0,1-7.49-2.26,11.51,11.51,0,0,1-3.81-6.72q-1.53-7.71,2.31-17.72a39.1,39.1,0,0,1,10.79-16.18,60.21,60.21,0,0,1,5.22-3.38c1.54-.89,2.86-1.62,4-2.26a10.41,10.41,0,0,1,3.81-.73,23.65,23.65,0,0,1,3.64.21c.77.13,1.54.26,2.26.43A9.91,9.91,0,0,1,393.66,81Zm1-2.57c-3.38-.25-6.29-.34-8.73-.3a52.11,52.11,0,0,0-6.68.6c-2,.3-4.06.73-6.16,1.24a32.86,32.86,0,0,0-8.64,2.91,57.81,57.81,0,0,0-8.31,5.05A33.58,33.58,0,0,0,351,93.15a29.79,29.79,0,0,0-3.81,6.59,18.92,18.92,0,0,0-2.14,7.11,29.1,29.1,0,0,0,.34,8.3,20.2,20.2,0,0,0,5.18,10.27,21.75,21.75,0,0,0,10,5.65,29.83,29.83,0,0,0-4.11,1.54,28,28,0,0,0-5.22,3.51,89.52,89.52,0,0,0-7.87,7.53,31.57,31.57,0,0,0-4.84,5.69c-1.71,2.44-3.51,5.09-5.39,8s-3.81,5.65-5.78,8.35a48.14,48.14,0,0,1-5.9,6.72,11,11,0,0,1-5.82,3.08,5.13,5.13,0,0,1-2.91-.9,2.44,2.44,0,0,1-1.2-1.67,5.6,5.6,0,0,1-1.07-3.12,9,9,0,0,1,.81-4.07,22,22,0,0,0,2.87-4.45,12.62,12.62,0,0,0,1.2-4.28,24.27,24.27,0,0,0-.22-5.13,9.91,9.91,0,0,0-2.31-3.86,10.46,10.46,0,0,0-3.76-2.35,7.35,7.35,0,0,0-4.2-.21,11.63,11.63,0,0,0-4.62,3.33,13.44,13.44,0,0,0-2.82,5.82,20.65,20.65,0,0,0,0,8.31c.38,4.66,2.18,8.26,5.35,10.78s7.61,3.81,13.39,3.85a17.58,17.58,0,0,0,8.86-4.11,42.24,42.24,0,0,0,7.14-8c2.19-3.17,4.45-6.55,6.81-10.18a98.57,98.57,0,0,1,8-10.57c4.07-4.41,7.58-7.58,10.61-9.42s5.14-2.82,6.34-2.91a5.3,5.3,0,0,1,1.2-.21,2.93,2.93,0,0,1,.59,0H368a37.42,37.42,0,0,0,9.45-1.15,34.3,34.3,0,0,0,8.52-3.47,2.27,2.27,0,0,1-.51.9,3.07,3.07,0,0,0-.52.9c-4.49,9-7.92,16.52-10.27,22.38s-3.42,10.57-3.34,14.08q0,6.28,3.21,9.37c2.14,2,5.36,4.11,9.37,3.21,6.29-1.41,10.52-4.3,14.48-9.32,10.36-13.12,12.91-20,17.26-35.53,1-3.6-9.7,20.57-18.93,33.32a20.52,20.52,0,0,1-3.68,4c-1.32,1.06-2.19,3.44-7.33,4.41a2.08,2.08,0,0,1-2-.73,3.39,3.39,0,0,1-.6-2.09c-.17-.77.13-2.19.9-4.24a99.09,99.09,0,0,1,4-9.16c1.93-4.06,4.5-9.41,7.75-16.09s7.36-15,12.19-25S418.57,96,425.24,82H408.55a33.74,33.74,0,0,1-1.67,3.29c-.59,1.07-1.15,2.1-1.66,3.13a8.57,8.57,0,0,0-1.59-3.9,12.79,12.79,0,0,0-3.42-3.08A52,52,0,0,0,394.69,78.43ZM197,164.45a25.15,25.15,0,0,0,3-4.45,11.61,11.61,0,0,0,1.19-4.28,17.9,17.9,0,0,0-.3-5.14,9.16,9.16,0,0,0-5.86-6,7.6,7.6,0,0,0-4.15-.17,10.55,10.55,0,0,0-4.62,3.21,13.51,13.51,0,0,0-2.83,5.82,20.34,20.34,0,0,0,0,8.17,14.71,14.71,0,0,0,5.35,11.21q5.07,4.18,13.65,4.45A39,39,0,0,0,213.59,170a83,83,0,0,0,9.67-10.57c3-3.9,5.82-7.79,8.47-11.77s5.18-7.58,7.62-10.91q7.69-10.86,14.76-20.24t13.05-16.57a106.73,106.73,0,0,1,10.92-11.34c3.25-2.73,6-4.28,8.26-4.49a1.89,1.89,0,0,1,1.36.39,1.41,1.41,0,0,1,.43,1.15,24.83,24.83,0,0,1-1.37,3.64c-.81,1.75-2,4.06-3.51,6.89-1.54,3-3.08,6.16-4.7,9.37s-3.38,6.55-5.31,10.14c-4.24,8.3-7.75,15.24-10.57,20.76s-5,9.84-6.38,12.88q-4.23,8.85-3.85,13.09a19.53,19.53,0,0,0,.82,5.69,17.45,17.45,0,0,0,2.52,5.35,11,11,0,0,0,4.07,3.68,11.58,11.58,0,0,0,5.43,1.2,14,14,0,0,0,4.71-.77,16,16,0,0,0,4.45-2.57,46.5,46.5,0,0,0,5.22-4.87c1.67-1.67,3.42-3.56,5.22-5.61s3.77-4.28,5.82-6.72c2.18-2.69,3.85-4.88,5-6.59a11.25,11.25,0,0,0,1.92-3.68,2.15,2.15,0,0,0-.08-.81c-.09-.13-.3-.22-.69-.22-1,.26-3.34,2.83-6.93,7.71a77.48,77.48,0,0,1-5.52,7.1c-2,2.31-4.11,4.58-6.29,6.76a26.38,26.38,0,0,1-2.27,2c-.9.73-1.84,1.5-2.87,2.4a18.18,18.18,0,0,1-3.38,2.09,8,8,0,0,1-3,.73,3.22,3.22,0,0,1-3.33-3.34,11.93,11.93,0,0,1,1.49-4.15c1-2.05,2.53-5.05,4.58-9s4.71-9.24,7.92-15.75,7-14.59,11.43-24.22c1.71-2.95,3.16-5.52,4.45-7.74a35.16,35.16,0,0,0,2.74-5.61,22,22,0,0,0,1.75-4.83,24.41,24.41,0,0,0,.56-5.44c0-4.28-.9-7.66-2.61-10.14a9.12,9.12,0,0,0-7.41-4c-2.09-.47-4.62.21-7.57,2a54.23,54.23,0,0,0-9.63,7.75c-3.47,3.38-6.93,7.15-10.48,11.3s-6.85,8.34-10.06,12.58-6,8.09-8.47,11.68-4.33,6.42-5.65,8.56q-4.44,6.36-9.12,13.05c-3.08,4.49-6.16,8.69-9.16,12.54a73.08,73.08,0,0,1-8.73,9.59c-2.78,2.48-5.35,3.85-7.66,4.1a5.79,5.79,0,0,1-3.25-.89,2.29,2.29,0,0,1-1.11-1.67,4.3,4.3,0,0,1-1.07-2.91A9.61,9.61,0,0,1,197,164.45ZM176.44,80.23c-.64-.13-2.1.17-4.41.9s-5.47,1.8-9.45,3.21a54.1,54.1,0,0,0-11.94,6.12A89.84,89.84,0,0,0,138.7,100a69.75,69.75,0,0,0-10.44,13,70.72,70.72,0,0,0-7.54,16.69,69.1,69.1,0,0,0-3.08,19.56q.08,14.12,6.12,21.57c4.07,5,9.89,7.53,17.51,7.7a46.4,46.4,0,0,0,21.78-7.66q10.2-6.74,19-19a103,103,0,0,0,13.74-25,84.38,84.38,0,0,0,5.26-25.59c0-6.2-1-11.12-2.74-14.67s-4-5.44-6.76-5.61a7.45,7.45,0,0,0-6.25,4.19c-1.45,2.61-2.22,6.17-2.22,10.7a39.2,39.2,0,0,0,1.58,10.83A47.08,47.08,0,0,0,189.54,118a113.36,113.36,0,0,1-6.94,18.66,142.83,142.83,0,0,1-10.78,18.83c-4.24,6.29-8.69,11.13-13.31,14.46a29.64,29.64,0,0,1-14.68,5.82c-4.23,0-7.44-1.49-9.58-4.36S131,164.49,131,159.31a75.19,75.19,0,0,1,2.14-15.23A113.69,113.69,0,0,1,139,127a118,118,0,0,1,8.69-16.69,83.63,83.63,0,0,1,10.57-13.61,87.93,87.93,0,0,1,10.57-8.3c3-1.93,5.31-3.3,6.93-4.19s2.53-1.59,2.53-2.14a1.87,1.87,0,0,0-.43-1.29A1.64,1.64,0,0,0,176.44,80.23ZM99.94,33.79q-1.06-10,9.42-13.08a16,16,0,0,1,9.62.72,10,10,0,0,1,6.2,6.4c.16.47.43,1.55.83,3.22a7.56,7.56,0,0,1-1.15,5.52A109.14,109.14,0,0,1,115,50.88a29,29,0,0,0-6.75,14.66,25.94,25.94,0,0,0-12.48-9.7,96,96,0,0,1-15.1-7.63,8.16,8.16,0,0,1-3.86-4c-.55-1.47-.91-2.54-1.15-3.26a10.08,10.08,0,0,1,1.91-8.66,14.49,14.49,0,0,1,7.87-5.41C92.47,25.36,97.32,27.63,99.94,33.79Zm-39.8,89.53c6.59-7.57,11.48-9.06,18-6.63a15.66,15.66,0,0,1,6.76,6.16,9.37,9.37,0,0,1,1,8.35l-1.25,3a6.9,6.9,0,0,1-4,3.46,100.72,100.72,0,0,1-15.69,5,27.94,27.94,0,0,0-13.65,7.1,24.1,24.1,0,0,0-3.63-14.48,88.2,88.2,0,0,1-6.93-14.55,8,8,0,0,1-.56-5.13c.45-1.38.77-2.42,1-3.11A9.31,9.31,0,0,1,47.47,107a13.51,13.51,0,0,1,9,.56C62.65,110.42,65,115,60.14,123.32ZM714.81,5.64c-43.52,2.19-596.76.43-640.19,3.85-45,3.54-67,9.36-67,23.23,0,7.15,14.42,19.24,35,27,2.43-5.13,4.16-6.17,7.14-11.28,3.74-6.39,6.79-14.08,19.5-30.94q-5,10.2-9.73,20.71c-3.14,7-6.12,13.91-9,20.7l-.92,2.38c26.81,8.93,66.38,12.62,66.38,53.42,0,18.6-8.5,34.46-26.36,46.94-15.23,9.86-34.37,18.48-54.89,16.89C15.31,177,5.47,156.72,8.07,142.74c4.12-22.2,8.75-30,17.09-50.5,4-9.9,11.9-23.56,17.38-32.53C17.94,50.77.71,41.5.71,32.75c0-6.67,4-12.28,11.92-16.77s19.63-7.86,35-10.13c7.2-1,16.22-1.77,27-2.3s23-.87,36.84-.84ZM104.09,113.69c0-22.82-28.46-43.67-48.88-50.6-5.28-1.79-3-.9-5.71-1.81C45.37,71.06,40.67,82.72,37,92.52S29.6,112.36,26.1,122.61c-4.25,12.64-7.47,22.15-6,30.47,1.76,9.55,12.32,14.37,21,14.34,17.65-.06,25.15-4.19,42-14.69C99.67,140.47,104.09,130.54,104.09,113.69Z"/></clipPath><linearGradient id="linear-gradient" x1="360.66" y1="192.82" x2="351.21" y2="-15.22" gradientUnits="userSpaceOnUse"><stop offset="0" stop-color="#e2000f"/><stop offset="1" stop-color="#970e04"/></linearGradient></defs><path class="cls-2" d="M635.28,35.29a1.37,1.37,0,0,0-.33-1,1.18,1.18,0,0,0-.79-.23,4.36,4.36,0,0,0-.83.08,4.53,4.53,0,0,0-1.05.34c-.35.17-.66.32-.89.45a5.3,5.3,0,0,0-.69.44c-.22.19-.51.44-.85.78a8.5,8.5,0,0,0-1.19,1.78c-.35.68-.66,1.38-.95,2.1l-.84,2.1a15.75,15.75,0,0,1-.85,1.74,18.45,18.45,0,0,1-2.2,3c-1,1.11-2.1,2.3-3.38,3.57s-2.68,2.56-4.15,3.89A34.3,34.3,0,0,1,613,57a4.59,4.59,0,0,1-2.23,1c-.3,0-.46-.11-.51-.29a1.69,1.69,0,0,1,0-.55,6.73,6.73,0,0,1,.43-1.46c.28-.7.61-1.5,1-2.41s.72-1.78,1-2.66l4.24-10.93a24,24,0,0,0,.93-2.74,7.1,7.1,0,0,0,.26-1.71,1.08,1.08,0,0,0-.12-.56.39.39,0,0,0-.37-.2,4.38,4.38,0,0,0-1.34.29,9.56,9.56,0,0,0-1.73.86,8.44,8.44,0,0,0-1.7,1.38,5.76,5.76,0,0,0-1.21,1.85c-.19.41-.35.8-.5,1.18s-.32.84-.5,1.36l-.75,2c-.32.83-.72,1.9-1.24,3.21l-3.76,9.53c-.7,1.83-1.24,3.34-1.64,4.53a11.88,11.88,0,0,0-.59,2.29,9.88,9.88,0,0,0,.07,1.54,1.49,1.49,0,0,0,.37.88,1.32,1.32,0,0,0,.95.29,2.93,2.93,0,0,0,.78-.13,6,6,0,0,0,1.28-.55,10.63,10.63,0,0,0,1.7-1.2c1.4-1.15,2.77-2.33,4.13-3.53s2.65-2.4,3.9-3.58,2.43-2.24,3.52-3.25c.94-.87,1.84-1.74,2.72-2.6l2.56-2.55-.72,2.4c-.24.8-.46,1.6-.67,2.4s-.48,1.87-.69,2.84-.39,1.94-.5,2.87a18.76,18.76,0,0,0-.2,2.57,10.08,10.08,0,0,0,.35,2.47c.22.81.47,1.68.76,2.59a28.41,28.41,0,0,1,.77,3.06,20.87,20.87,0,0,1,.35,3.84,16.55,16.55,0,0,1-.83,4.88,30.25,30.25,0,0,1-2.12,5.08,38.14,38.14,0,0,1-2.9,4.72,31.88,31.88,0,0,1-3.13,3.82l.84.07a13.46,13.46,0,0,0,2.36-2,31.41,31.41,0,0,0,2.76-3.27q1.43-1.89,2.79-4.08a48.5,48.5,0,0,0,2.43-4.47A30.34,30.34,0,0,0,628,73.67a14.63,14.63,0,0,0,.66-4,19.68,19.68,0,0,0-.22-3,21.52,21.52,0,0,0-.48-2.28c-.18-.68-.33-1.36-.47-2a11.14,11.14,0,0,1-.22-2.17,25.71,25.71,0,0,1,.33-4.24,25,25,0,0,1,.77-3.31c.3-1,.58-1.81.84-2.53s.57-1.71.86-2.63.57-1.82.86-2.69.58-1.63.86-2.26a33.44,33.44,0,0,0,2-2.9,13.22,13.22,0,0,0,1.05-2,7,7,0,0,0,.37-1.35A7.26,7.26,0,0,0,635.28,35.29ZM601.43,57.41l-.63-.83c-1.08.71-2.18,1.4-3.28,2.08s-2.19,1.31-3.27,1.88a22,22,0,0,1-3.06,1.36,8.66,8.66,0,0,1-2.7.52.66.66,0,0,1-.57-.25,1.33,1.33,0,0,1-.19-.61c0-.23,0-.45,0-.67a12.65,12.65,0,0,1,.33-2.31c.22-1,.51-2.15.89-3.49s.81-2.73,1.31-4.24,1-3,1.58-4.57c1-1.49,2-2.91,2.72-4.26a26,26,0,0,0,1.79-3.76,9,9,0,0,0,.63-3,1.33,1.33,0,0,0-.32-1,1.2,1.2,0,0,0-.79-.23,4.36,4.36,0,0,0-.83.08,4.24,4.24,0,0,0-1,.34c-.36.17-.66.32-.89.45a6.16,6.16,0,0,0-.7.44c-.22.19-.51.44-.84.78A8.84,8.84,0,0,0,590,38.28,19.71,19.71,0,0,0,589,40.83l-1,3c-.17.54-.32,1-.43,1.27s-.22.62-.32.91-.26.64-.43,1.09a4.51,4.51,0,0,1-1.34,1.1,14.91,14.91,0,0,1-3,1.32,26.66,26.66,0,0,1-4.68,1.06,17.66,17.66,0,0,1-2.5.2h-1c.17-.55.36-1.11.55-1.68s.39-1.13.56-1.72c.32-1,.67-2,1.07-3.15s.77-2.16,1.16-3.18c.26-.79.56-1.58.9-2.38s.62-1.51.87-2.11a5.05,5.05,0,0,0,.38-1.22,1.09,1.09,0,0,0-.11-.56.39.39,0,0,0-.37-.2,4.86,4.86,0,0,0-1.6.28,6.14,6.14,0,0,0-1.91,1A7.52,7.52,0,0,0,574,37.94a12,12,0,0,0-.87,1.84c-.31.76-.64,1.63-1,2.58s-.7,2-1.07,3-.78,2-1.19,3l-.63,1.53a4,4,0,0,0-1.93.7,1.62,1.62,0,0,0-.71,1.32c0,.38,0,.65,0,.82a.93.93,0,0,0,.16.44c.09.12.23.3.44.55l-1.18,3.68c-.14.54-.33,1.13-.55,1.78s-.45,1.29-.67,1.94-.4,1.23-.55,1.74a3.64,3.64,0,0,0-.17,2.12.84.84,0,0,0,.44.58,2.6,2.6,0,0,0,1.15.19,4.67,4.67,0,0,0,1.11-.13,4.4,4.4,0,0,0,1.21-.55,9.56,9.56,0,0,0,1.44-1.2,6.29,6.29,0,0,0,1-1.51,16.66,16.66,0,0,0,.94-2.11q.43-1.15.78-2.34c.23-.79.43-1.53.58-2.21s.27-1.25.34-1.71a4,4,0,0,0,.58,0l.68-.09c.38-.1.83-.19,1.33-.27a11.89,11.89,0,0,0,1.59-.36,32.5,32.5,0,0,0,3.94-1.35c1.1-.47,2-.9,2.74-1.29l1.15-.7a10.46,10.46,0,0,0,1-.7l-.62,1.88c-.18.54-.35,1.07-.5,1.58s-.3,1-.41,1.27l-1,3.48c-.35,1.2-.67,2.33-1,3.42s-.54,2-.72,2.85a12,12,0,0,0-.28,1.8,2,2,0,0,0,.22,1.06c.16.3.53.46,1.1.47A11.42,11.42,0,0,0,586.54,66c1.66-.7,3.74-1.68,6.26-3,1.3-.69,2.5-1.36,3.62-2s2.07-1.34,2.92-1.95S600.89,57.86,601.43,57.41ZM553.94,38.08a4.53,4.53,0,0,1-.68,2.18,17,17,0,0,1-1.87,2.53c-.8.92-1.7,1.89-2.74,2.94-.88.94-1.8,1.85-2.77,2.72s-1.87,1.68-2.72,2.42c-.49.42-1,.84-1.45,1.24l-1.4,1.2a20,20,0,0,1,.52-3.64,26.07,26.07,0,0,1,1.09-3.51,29,29,0,0,1,1.44-3.1,17.27,17.27,0,0,1,1.54-2.34,12.93,12.93,0,0,1,2.46-2.45,10,10,0,0,1,2.48-1.41,6.06,6.06,0,0,1,2.08-.45,3.14,3.14,0,0,1,1,.1,1.3,1.3,0,0,1,.74.49A1.68,1.68,0,0,1,553.94,38.08Zm8.9,20a1.72,1.72,0,0,0,0-.69,3,3,0,0,0-.33-.63c-.8.62-1.64,1.21-2.48,1.76s-1.73,1.05-2.6,1.51-2.09,1-3.25,1.54a24.72,24.72,0,0,1-3.59,1.18,16,16,0,0,1-3.66.48,8.07,8.07,0,0,1-3.62-.69,4.48,4.48,0,0,1-2.23-2.39,10.48,10.48,0,0,1-.55-4.58c.66-.62,1.33-1.25,2-1.86l2-1.82q1.13-1.08,2.37-2.22l2.42-2.22c.79-.72,1.51-1.41,2.17-2,1.65-1.55,3.1-3,4.36-4.3a26.94,26.94,0,0,0,2.92-3.53A5.28,5.28,0,0,0,559.85,35a2.62,2.62,0,0,0-.31-1.4,1.88,1.88,0,0,0-1.11-.74,7.45,7.45,0,0,0-2.12-.23,10.75,10.75,0,0,0-3,.52,19.15,19.15,0,0,0-3.78,1.65,26.17,26.17,0,0,0-4.2,2.91,35.09,35.09,0,0,0-8.21,10.08,27.7,27.7,0,0,0-2.24,5.43,16.51,16.51,0,0,0-.72,4.52c0,3,.73,5.22,2.19,6.62s3.65,2.09,6.57,2.08a23,23,0,0,0,5.64-.79,38.17,38.17,0,0,0,5.39-1.9,49.68,49.68,0,0,0,4.58-2.35,35.94,35.94,0,0,0,3.17-2.08C562.43,58.66,562.83,58.28,562.84,58.11Zm-32.25-1.32L530,56c-.72.54-1.53,1.16-2.44,1.88s-1.83,1.41-2.79,2.1a20.3,20.3,0,0,1-2.83,1.71,6,6,0,0,1-2.52.71,1.14,1.14,0,0,1-.91-.39,2,2,0,0,1-.34-1.28,7.14,7.14,0,0,1,.26-1.46c.17-.66.38-1.41.65-2.25s.54-1.69.83-2.56.58-1.66.84-2.4.46-1.32.62-1.76c.66-1.88,1.24-3.6,1.76-5.14s.94-2.88,1.26-4a12,12,0,0,0,.46-2.73,4.05,4.05,0,0,0-.3-1.8,1.21,1.21,0,0,0-.72-.68,2.8,2.8,0,0,0-.86-.09,4.64,4.64,0,0,0-1.39.24,11.24,11.24,0,0,0-2.2,1.07A32.14,32.14,0,0,0,516,39.5q-2,1.62-4.91,4.28a.41.41,0,0,0,0,.15c0,.06.06.13.1.2a1,1,0,0,0,.32.3.43.43,0,0,0,.37,0c1.18-1,2.14-1.72,2.83-2.21a8.4,8.4,0,0,1,1.67-1,2.89,2.89,0,0,1,1.21-.22,1,1,0,0,1,.73.25,1,1,0,0,1,.27.56,3,3,0,0,1,0,.58,11.24,11.24,0,0,1-.46,2.63q-.46,1.65-1.23,3.87t-1.72,4.91l-1.15,3.28c-.37,1.09-.72,2.12-1,3.08s-.55,1.77-.74,2.46a7.09,7.09,0,0,0-.29,1.4,9.23,9.23,0,0,0,.05,1.32,1.54,1.54,0,0,0,.46,1,2.21,2.21,0,0,0,1.44.39,5.72,5.72,0,0,0,1.77-.32,17.5,17.5,0,0,0,2.81-1.22c1.12-.58,2.53-1.41,4.18-2.49.59-.4,1.26-.85,2-1.38s1.49-1.07,2.25-1.64,1.46-1.11,2.09-1.63A18.56,18.56,0,0,0,530.59,56.79ZM495.91,39.47a1.9,1.9,0,0,0-1.14.52,7.63,7.63,0,0,0-1.19,1.26,12.34,12.34,0,0,0-1,1.56,8.3,8.3,0,0,0-.68,1.39c-.29.72-.58,1.47-.84,2.27s-.58,1.65-.91,2.55-.72,1.83-1.17,2.83a25.42,25.42,0,0,1-3.55,5.66,14.25,14.25,0,0,1-3.77,3.2,7.17,7.17,0,0,1-3.46,1,2.58,2.58,0,0,1-1.29-.33,2.62,2.62,0,0,1-1-1.18,6,6,0,0,1-.4-2.32,14.32,14.32,0,0,1,.32-2.67,31.73,31.73,0,0,1,.9-3.42A35.28,35.28,0,0,1,478,48.29a19.18,19.18,0,0,1,1.57-3,25.78,25.78,0,0,1,4-4.79,12.29,12.29,0,0,1,4-2.54,12.58,12.58,0,0,1,4.46-.74,4,4,0,0,1,.93.16,7.61,7.61,0,0,1,1.21.46,5,5,0,0,1,1.1.7A2.11,2.11,0,0,1,495.91,39.47Zm9.94,17.32-.62-.84L502,58.42c-1.1.84-2.19,1.6-3.26,2.32a20,20,0,0,1-3.08,1.7,7.28,7.28,0,0,1-2.77.68,1.16,1.16,0,0,1-.69-.19,1.38,1.38,0,0,1-.46-.72,5.11,5.11,0,0,1-.17-1.53,10.36,10.36,0,0,1,.49-2c.33-1,.77-2.36,1.33-4s1.2-3.38,1.93-5.34c.37-1,.73-1.82,1.07-2.52s.65-1.35.95-1.94a17,17,0,0,0,.83-1.87,20.42,20.42,0,0,0,1.5-1.42,3.25,3.25,0,0,0,.74-1.21,4.9,4.9,0,0,0,.2-1.61,2.93,2.93,0,0,0-.72-1.94,4.65,4.65,0,0,0-1.74-1.21,9.41,9.41,0,0,0-2.06-.64,10.31,10.31,0,0,0-1.74-.17,19.1,19.1,0,0,0-5.17.68,21.07,21.07,0,0,0-5.43,2.37,34,34,0,0,0-5.82,4.53,24.18,24.18,0,0,0-3.34,4A30.82,30.82,0,0,0,472,51a28.12,28.12,0,0,0-1.59,4.68,18,18,0,0,0-.56,4.22,12.83,12.83,0,0,0,.34,3.3,3.72,3.72,0,0,0,1.29,2.13,4.27,4.27,0,0,0,2.69.76,10.37,10.37,0,0,0,4.15-1,20.77,20.77,0,0,0,4.47-2.9,30.29,30.29,0,0,0,4.38-4.5h.28c-.09.37-.18.85-.3,1.4s-.21,1.17-.31,1.82-.19,1.29-.26,1.92a15,15,0,0,0-.1,1.68,3.92,3.92,0,0,0,.55,2.18,1.9,1.9,0,0,0,1.6.88,7.3,7.3,0,0,0,2.69-.76A31.21,31.21,0,0,0,495,64.88q2-1.22,4-2.64c1.34-1,2.61-1.92,3.81-2.87S505,57.56,505.85,56.79ZM425.61,39.47a1.9,1.9,0,0,0-1.14.52,7.63,7.63,0,0,0-1.19,1.26,12.34,12.34,0,0,0-1,1.56,9.16,9.16,0,0,0-.68,1.39c-.29.72-.57,1.47-.84,2.27s-.58,1.65-.91,2.55-.71,1.83-1.17,2.83a25.79,25.79,0,0,1-3.54,5.66,14.44,14.44,0,0,1-3.78,3.2,7.17,7.17,0,0,1-3.46,1,2.52,2.52,0,0,1-1.28-.33,2.58,2.58,0,0,1-1-1.18,6,6,0,0,1-.4-2.32,14.32,14.32,0,0,1,.32-2.67,31.73,31.73,0,0,1,.9-3.42,35.28,35.28,0,0,1,1.31-3.52,19.18,19.18,0,0,1,1.57-3,25.78,25.78,0,0,1,4-4.79,12.29,12.29,0,0,1,4-2.54,12.62,12.62,0,0,1,4.46-.74,3.92,3.92,0,0,1,.93.16,7.26,7.26,0,0,1,1.21.46,5,5,0,0,1,1.1.7A2.11,2.11,0,0,1,425.61,39.47Zm9.95,17.32-.63-.84-3.27,2.47c-1.1.84-2.19,1.6-3.26,2.32a20,20,0,0,1-3.08,1.7,7.28,7.28,0,0,1-2.77.68,1.16,1.16,0,0,1-.69-.19,1.38,1.38,0,0,1-.46-.72,5.11,5.11,0,0,1-.17-1.53,9.92,9.92,0,0,1,.5-2q.48-1.56,1.32-4c.57-1.59,1.2-3.38,1.93-5.34.37-1,.73-1.82,1.07-2.52s.65-1.35.95-1.94a17,17,0,0,0,.83-1.87,20.42,20.42,0,0,0,1.5-1.42,3.25,3.25,0,0,0,.74-1.21,4.9,4.9,0,0,0,.2-1.61,2.93,2.93,0,0,0-.72-1.94,4.65,4.65,0,0,0-1.74-1.21,9.41,9.41,0,0,0-2.06-.64,10.31,10.31,0,0,0-1.74-.17,19.1,19.1,0,0,0-5.17.68,21.07,21.07,0,0,0-5.43,2.37,34,34,0,0,0-5.82,4.53,24.18,24.18,0,0,0-3.34,4A30.82,30.82,0,0,0,401.74,51a28.12,28.12,0,0,0-1.59,4.68,18,18,0,0,0-.56,4.22,12.83,12.83,0,0,0,.34,3.3,3.72,3.72,0,0,0,1.29,2.13,4.27,4.27,0,0,0,2.69.76,10.37,10.37,0,0,0,4.15-1,20.77,20.77,0,0,0,4.47-2.9,30.29,30.29,0,0,0,4.38-4.5h.28c-.09.37-.18.85-.3,1.4s-.21,1.17-.31,1.82-.19,1.29-.26,1.92a15,15,0,0,0-.1,1.68,3.84,3.84,0,0,0,.56,2.18,1.88,1.88,0,0,0,1.6.88,7.31,7.31,0,0,0,2.68-.76,31.21,31.21,0,0,0,3.61-1.93q2-1.22,4-2.64c1.34-1,2.61-1.92,3.81-2.87S434.69,57.56,435.56,56.79ZM398,57.41l-.63-.83c-1.08.71-2.18,1.4-3.28,2.08s-2.19,1.31-3.27,1.88a21,21,0,0,1-3.06,1.36,8.6,8.6,0,0,1-2.7.52.67.67,0,0,1-.57-.25,1.32,1.32,0,0,1-.18-.61,5,5,0,0,1,0-.67,12.45,12.45,0,0,1,.32-2.31c.22-1,.51-2.15.89-3.49s.81-2.73,1.31-4.24,1-3,1.58-4.57c1-1.49,2-2.91,2.72-4.26a26,26,0,0,0,1.79-3.76,8.75,8.75,0,0,0,.64-3,1.33,1.33,0,0,0-.33-1,1.18,1.18,0,0,0-.79-.23,4.36,4.36,0,0,0-.83.08,4.32,4.32,0,0,0-1,.34c-.36.17-.67.32-.9.45a5.3,5.3,0,0,0-.69.44c-.22.19-.51.44-.85.78a9.42,9.42,0,0,0-1.52,2.15,19.7,19.7,0,0,0-1.06,2.55c-.31.92-.63,1.91-1,3-.17.54-.32,1-.43,1.27s-.22.62-.32.91-.25.64-.43,1.09a4.3,4.3,0,0,1-1.33,1.1,15,15,0,0,1-3,1.32,26.53,26.53,0,0,1-4.67,1.06,17.9,17.9,0,0,1-2.51.2h-1c.17-.55.36-1.11.56-1.68s.38-1.13.55-1.72c.33-1,.68-2,1.07-3.15s.78-2.16,1.16-3.18c.27-.79.57-1.58.9-2.38l.87-2.11a5.25,5.25,0,0,0,.39-1.22,1.08,1.08,0,0,0-.12-.56.39.39,0,0,0-.37-.2,4.9,4.9,0,0,0-1.6.28,6.1,6.1,0,0,0-1.9,1,7.54,7.54,0,0,0-1.79,2.09,12,12,0,0,0-.87,1.84c-.31.76-.63,1.63-1,2.58s-.7,2-1.07,3-.77,2-1.19,3l-.63,1.53a3.9,3.9,0,0,0-1.92.7,1.6,1.6,0,0,0-.72,1.32c0,.38,0,.65,0,.82a1,1,0,0,0,.17.44c.09.12.23.3.44.55l-1.19,3.68c-.14.54-.32,1.13-.54,1.78s-.45,1.29-.67,1.94-.41,1.23-.56,1.74a4.76,4.76,0,0,0-.24,1.15,3.44,3.44,0,0,0,.08,1,.82.82,0,0,0,.44.58,2.54,2.54,0,0,0,1.15.19,4.67,4.67,0,0,0,1.11-.13,4.35,4.35,0,0,0,1.2-.55,9.09,9.09,0,0,0,1.44-1.2,6.29,6.29,0,0,0,1-1.51,16.66,16.66,0,0,0,.94-2.11q.44-1.15.78-2.34c.23-.79.43-1.53.58-2.21s.28-1.25.35-1.71a4.14,4.14,0,0,0,.58,0l.67-.09c.38-.1.83-.19,1.33-.27a11.55,11.55,0,0,0,1.59-.36,32.5,32.5,0,0,0,3.94-1.35c1.1-.47,2-.9,2.74-1.29l1.16-.7a11.9,11.9,0,0,0,1-.7l-.63,1.88c-.17.54-.35,1.07-.5,1.58s-.3,1-.4,1.27c-.34,1.13-.68,2.29-1,3.48s-.67,2.33-1,3.42-.53,2-.72,2.85a13.49,13.49,0,0,0-.28,1.8,2,2,0,0,0,.22,1.06,1.2,1.2,0,0,0,1.11.47A11.38,11.38,0,0,0,383.13,66c1.66-.7,3.75-1.68,6.26-3,1.3-.69,2.51-1.36,3.62-2s2.08-1.34,2.92-1.95S397.49,57.86,398,57.41ZM701,40.44a9.86,9.86,0,0,1-.29,2.27,18.26,18.26,0,0,1-.86,2.63A17.11,17.11,0,0,1,698.43,48a15.58,15.58,0,0,1-1.85,2.43,24,24,0,0,1-2.11-1.53,7.2,7.2,0,0,1-1.4-1.5,5.2,5.2,0,0,1-.78-1.81,11.59,11.59,0,0,1-.23-2.47,8.31,8.31,0,0,1,.82-3.71A6.06,6.06,0,0,1,695.06,37a5.61,5.61,0,0,1,3.05-.88,2.45,2.45,0,0,1,1.15.28,2.78,2.78,0,0,1,1.17,1.24A6.2,6.2,0,0,1,701,40.44Zm10.36,17.11-.62-.83c-1.47.94-2.88,1.79-4.22,2.57a36.21,36.21,0,0,1-3.64,1.86,7.45,7.45,0,0,1-2.65.71,1.24,1.24,0,0,1-.83-.25,1,1,0,0,1-.3-.6,3.21,3.21,0,0,1,0-.68,4.9,4.9,0,0,1,.28-1.38c.19-.52.39-1.05.63-1.62s.44-1.15.62-1.71a5.75,5.75,0,0,0,.28-1.62,2.38,2.38,0,0,0-.46-1.53,3.06,3.06,0,0,0-1.07-.85L698,51a26.84,26.84,0,0,0,1.77-2.07c.56-.71,1.08-1.44,1.57-2.17A27,27,0,0,0,703,44.06a17.79,17.79,0,0,0,1.28-3,11.18,11.18,0,0,0,.51-3.11,5.9,5.9,0,0,0-.41-2.4,2.86,2.86,0,0,0-1.44-1.49,6.7,6.7,0,0,0-2.81-.5,8.39,8.39,0,0,0-2.2.36A17.19,17.19,0,0,0,695.2,35a19,19,0,0,0-2.88,1.7A15.61,15.61,0,0,0,689.75,39a10.59,10.59,0,0,0-1.84,2.86,8.47,8.47,0,0,0-.72,3.41,8.25,8.25,0,0,0,.67,3.41A7.63,7.63,0,0,0,689.49,51a13.69,13.69,0,0,0,2.07,1.66c.72.47,1.37.92,2,1.34-.32.36-.73.82-1.27,1.36s-1.13,1.11-1.79,1.72-1.34,1.18-2,1.72a14,14,0,0,1-3.17,2,7.52,7.52,0,0,1-3.16.7,2.79,2.79,0,0,1-1.82-.58,3.32,3.32,0,0,1-.93-1.38,5.63,5.63,0,0,1-.3-1.63,6,6,0,0,1,.06-1.28,4,4,0,0,0-1.21.6,6.45,6.45,0,0,0-1.3,1.23,7.07,7.07,0,0,0-1,1.7,5.62,5.62,0,0,0-.43,2.1,5.85,5.85,0,0,0,.11,1,4,4,0,0,0,.46,1.22,2.88,2.88,0,0,0,1,1.06,3.6,3.6,0,0,0,1.86.45,9.52,9.52,0,0,0,3.77-.74A14.75,14.75,0,0,0,685,63.75a26.42,26.42,0,0,0,3.26-2.51c1.19-1.05,2.2-2,3-2.8s1.48-1.54,2-2.15,1-1.15,1.35-1.59a.26.26,0,0,0,.15.07.6.6,0,0,1,.2.07c.1.09.18.18.25.25a.48.48,0,0,1,.1.31,6,6,0,0,1-.43,1.5c-.27.71-.57,1.51-.93,2.41s-.66,1.78-.93,2.64a7.74,7.74,0,0,0-.43,2.21,2.76,2.76,0,0,0,.15.88,1.54,1.54,0,0,0,.58.74,2.11,2.11,0,0,0,1.22.33,6.86,6.86,0,0,0,1.88-.26,14.91,14.91,0,0,0,2.69-1c1.08-.48,2.42-1.2,4.06-2.14,1.12-.66,2.19-1.31,3.22-2s1.95-1.24,2.78-1.8S710.78,57.93,711.32,57.55Zm-34.75-.14-.63-.83c-1.06.71-2.14,1.4-3.22,2.08s-2.16,1.31-3.22,1.88a21.13,21.13,0,0,1-3.07,1.36,9,9,0,0,1-2.8.52.66.66,0,0,1-.57-.3,1.77,1.77,0,0,1-.19-.88,8.83,8.83,0,0,1,.27-1.28c.19-.67.41-1.47.69-2.4s.57-1.89.87-2.87.58-1.89.82-2.7.43-1.44.55-1.88c.27-.92.56-1.83.85-2.76s.57-1.8.86-2.62.58-1.57.86-2.2a32,32,0,0,0,2.11-3.23,13.06,13.06,0,0,0,1.07-2.36,5.56,5.56,0,0,0,.3-1.65A1.05,1.05,0,0,0,671,34a4.84,4.84,0,0,0-1.92.42,7.46,7.46,0,0,0-2.39,1.67,10.37,10.37,0,0,0-1.57,2.48c-.45.94-.84,1.88-1.19,2.8a21.4,21.4,0,0,1-1.06,2.44c-.83,1.18-1.6,2.22-2.33,3.11s-1.46,1.7-2.21,2.44-1.52,1.51-2.36,2.29-1.79,1.63-2.84,2.59A37.62,37.62,0,0,1,649.86,57a4.75,4.75,0,0,1-2.23,1c-.3,0-.46-.11-.51-.29a2,2,0,0,1,0-.55,4.6,4.6,0,0,1,.3-1c.2-.52.43-1.13.71-1.83s.54-1.38.81-2,.46-1.22.61-1.64l4.24-10.93a18.57,18.57,0,0,0,.76-2.06,12.27,12.27,0,0,0,.32-1.44c0-.38.09-.69.11-1a1.08,1.08,0,0,0-.12-.56.39.39,0,0,0-.37-.2,4.63,4.63,0,0,0-1.32.24,7.36,7.36,0,0,0-1.65.78,8.48,8.48,0,0,0-1.66,1.35,7.69,7.69,0,0,0-1.35,2c-.37.8-.79,1.86-1.27,3.17s-1,2.85-1.72,4.62l-3.76,9.53c-.5,1.23-.9,2.25-1.19,3.08s-.53,1.52-.68,2.07a10.23,10.23,0,0,0-.29,1.39,7.78,7.78,0,0,0-.07,1,2.45,2.45,0,0,0,.36,1.47,1.21,1.21,0,0,0,1,.48,3.89,3.89,0,0,0,1.38-.39,11.92,11.92,0,0,0,2.37-1.49c1.46-1.15,2.89-2.33,4.27-3.53s2.68-2.4,3.92-3.58,2.39-2.24,3.43-3.25,1.84-1.74,2.71-2.6,1.71-1.72,2.51-2.55c-.07.24-.14.49-.23.74a8.05,8.05,0,0,1-.26.79c-.14.52-.31,1.11-.51,1.79s-.43,1.41-.67,2.24l-1,3.42c-.35,1.15-.68,2.27-1,3.32s-.53,2-.72,2.84a11.13,11.13,0,0,0-.28,2,2,2,0,0,0,.23,1.06c.16.3.53.46,1.1.47a10.91,10.91,0,0,0,3.63-.89A43.93,43.93,0,0,0,667.94,63l5.17-3.2A34,34,0,0,0,676.57,57.41Zm-326-19.33a4.53,4.53,0,0,1-.68,2.18A16.28,16.28,0,0,1,348,42.79c-.8.92-1.7,1.89-2.73,2.94s-1.81,1.85-2.77,2.72-1.88,1.68-2.73,2.42c-.48.42-1,.84-1.45,1.24l-1.4,1.2a20,20,0,0,1,.52-3.64,26.07,26.07,0,0,1,1.09-3.51,29,29,0,0,1,1.44-3.1,17.27,17.27,0,0,1,1.54-2.34A12.93,12.93,0,0,1,344,38.27a10.22,10.22,0,0,1,2.48-1.41,6.11,6.11,0,0,1,2.09-.45,3.08,3.08,0,0,1,1,.1,1.3,1.3,0,0,1,.74.49A1.68,1.68,0,0,1,350.53,38.08Zm8.91,20a2.19,2.19,0,0,0,0-.69,3.11,3.11,0,0,0-.34-.63c-.8.62-1.63,1.21-2.48,1.76s-1.73,1.05-2.6,1.51-2.08,1-3.24,1.54a24.84,24.84,0,0,1-3.6,1.18,15.92,15.92,0,0,1-3.66.48,8.1,8.1,0,0,1-3.62-.69,4.46,4.46,0,0,1-2.22-2.39,10.46,10.46,0,0,1-.56-4.58c.66-.62,1.33-1.25,2-1.86s1.35-1.23,2-1.82l2.37-2.22,2.42-2.22c.79-.72,1.51-1.41,2.17-2,1.66-1.55,3.11-3,4.36-4.3a26.94,26.94,0,0,0,2.92-3.53A5.22,5.22,0,0,0,356.45,35a2.62,2.62,0,0,0-.32-1.4,1.88,1.88,0,0,0-1.11-.74,7.45,7.45,0,0,0-2.12-.23,10.75,10.75,0,0,0-3,.52,19.15,19.15,0,0,0-3.78,1.65,26.12,26.12,0,0,0-4.19,2.91A33.61,33.61,0,0,0,337.6,42a35.08,35.08,0,0,0-3.92,5.77,28.41,28.41,0,0,0-2.25,5.43,16.51,16.51,0,0,0-.72,4.52c0,3,.73,5.22,2.19,6.62s3.65,2.09,6.57,2.08a23,23,0,0,0,5.64-.79,37.73,37.73,0,0,0,5.39-1.9,49.68,49.68,0,0,0,4.58-2.35,37.93,37.93,0,0,0,3.18-2.08C359,58.66,359.43,58.28,359.44,58.11ZM313.07,37.87c.29,0,.44.11.44.33a2.53,2.53,0,0,1-.19.88c-.14.36-.26.77-.39,1.22a16.33,16.33,0,0,1-.77,2c-.32.76-.69,1.53-1.1,2.3s-.83,1.48-1.25,2.13a10.34,10.34,0,0,1-1.2,1.53,12,12,0,0,1,.31-1.27c.16-.61.37-1.3.62-2.08s.52-1.59.83-2.41.62-1.59.93-2.3a12,12,0,0,1,.94-1.7C312.55,38.1,312.82,37.88,313.07,37.87Zm-6,20.24a22.38,22.38,0,0,1,.38-4.19,19,19,0,0,1,.74-2.77c.76-1,1.59-2.14,2.48-3.46s1.73-2.68,2.54-4.1a32.45,32.45,0,0,0,2-4.05,9.47,9.47,0,0,0,.8-3.34,4.37,4.37,0,0,0-.2-1.71c-.15-.31-.47-.46-1-.45a3.5,3.5,0,0,0-2,1.08,21.44,21.44,0,0,0-2.67,3c-1,1.3-2,2.83-3.11,4.61a19.2,19.2,0,0,0-1.16,2c-.47.9-1,1.94-1.49,3.13s-1,2.46-1.47,3.78a37.55,37.55,0,0,0-1.14,3.94,17.45,17.45,0,0,0-.45,3.62,10.49,10.49,0,0,0,.75,4.24,4.67,4.67,0,0,0,2.05,2.25,6,6,0,0,0,3,.68,10,10,0,0,0,6-2.26,29.8,29.8,0,0,0,6.14-6.86,36.13,36.13,0,0,0,3.23-5.6,30.34,30.34,0,0,0,1.91-5.38,19.69,19.69,0,0,0,.63-4.67,26.19,26.19,0,0,0-.59-5.53,27.55,27.55,0,0,0-1.52-4.78,39.45,39.45,0,0,0-2.05-4.17c-.74-1.28-1.63-2.4-2.19-3.61a3.9,3.9,0,0,1,1.14-5.12,18.88,18.88,0,0,1,5.16-3,28.85,28.85,0,0,1,4.11-1.59,15.44,15.44,0,0,1,3.18-.31,14.34,14.34,0,0,1,2.29.2l1.65.35c.72.14,1.41.3,2.08.49l1.83.55a12,12,0,0,0,1.34.37,1.15,1.15,0,0,0,.92-.37,4.85,4.85,0,0,0,.9-1,3.93,3.93,0,0,0,.48-1,1.29,1.29,0,0,0,0-1,1.4,1.4,0,0,0-.82-.5c-.41-.11-.92-.21-1.54-.33s-1.52-.23-2.53-.31a26.71,26.71,0,0,0-3.35,0,20.36,20.36,0,0,0-3.65.58c-1.62.38-3.06.72-4.3,1.07s-2.37.7-3.35,1.07-1.92.76-2.78,1.17-1.75.89-2.62,1.4-2.74,1.68-3.77,2.31c-4.52,2.78-2.8,4.7-1,7.93.63,1.11,1.47,2.18,2.2,3.41s1.4,2.51,2,3.83a27.39,27.39,0,0,1,1.48,4,15.33,15.33,0,0,1,.57,3.95,32.58,32.58,0,0,1-.43,5.21,34.91,34.91,0,0,1-1.23,5.23,25.58,25.58,0,0,1-2,4.66,15.86,15.86,0,0,1-3.52,4.48,5.43,5.43,0,0,1-3.57,1.36,2.06,2.06,0,0,1-1.51-.6,3.44,3.44,0,0,1-.81-1.58A9.26,9.26,0,0,1,307.08,58.11Zm-9.15-1.32L297.3,56c-1.09.71-2.19,1.4-3.29,2.11s-2.18,1.35-3.21,1.93a27,27,0,0,1-2.8,1.4,5.73,5.73,0,0,1-2,.54c-.3,0-.48-.1-.54-.29a2,2,0,0,1-.08-.75,7.13,7.13,0,0,1,.28-1.39c.18-.66.4-1.43.68-2.31l.87-2.69c.3-.91.58-1.76.82-2.54s.43-1.39.55-1.85c.47-1.54.92-3,1.36-4.45s.84-2.75,1.19-4,.62-2.24.82-3.1a9.1,9.1,0,0,0,.31-1.92,2,2,0,0,0-.18-1,.68.68,0,0,0-.65-.37,5.62,5.62,0,0,0-2.42.76,22.59,22.59,0,0,0-3.84,2.55,57.54,57.54,0,0,0-5.3,4.8q-3,3-6.8,7.47h-.21l.91-2.56c.37-1.05.78-2.21,1.21-3.45s.83-2.47,1.22-3.68.69-2.27.93-3.21a9.74,9.74,0,0,0,.39-2,1.45,1.45,0,0,0-.33-1.06,1.1,1.1,0,0,0-.79-.26,5.21,5.21,0,0,0-2.6.9,29.86,29.86,0,0,0-3.51,2.61c-1.29,1.12-2.74,2.43-4.32,3.93-.79.74-1.61,1.6-2.47,2.56s-1.69,2-2.51,3-1.59,2.07-2.3,3.07-1.29,1.88-1.76,2.68l-.28-.21c.31-.73.61-1.47.89-2.24s.57-1.52.85-2.28.69-1.78,1-2.74.67-1.91,1-2.87.61-1.87.89-2.74c.21-.66.43-1.33.64-2s.4-1.28.55-1.84a7.37,7.37,0,0,0,.27-1.22,1,1,0,0,0-.12-.56.37.37,0,0,0-.37-.2,4.05,4.05,0,0,0-1.33.29,10,10,0,0,0-1.74.86,8.38,8.38,0,0,0-1.69,1.38,5.79,5.79,0,0,0-1.22,1.85c-.17.42-.38,1-.61,1.68s-.48,1.49-.72,2.31-.49,1.62-.7,2.4-.4,1.42-.54,2c-.28.92-.55,1.82-.8,2.69s-.53,1.72-.82,2.62-.62,1.85-1,2.87-.76,2.17-1.23,3.43c-.25.64-.51,1.31-.75,2s-.44,1.33-.6,1.9a6.19,6.19,0,0,0-.25,1.23,1.49,1.49,0,0,0,.15.73.67.67,0,0,0,.62.31,3.9,3.9,0,0,0,1.71-.48,8.81,8.81,0,0,0,1.65-1.07,9.13,9.13,0,0,0,1.16-1.09c.47-1,1.08-2.25,1.83-3.67s1.61-3,2.6-4.56,2-3.2,3.23-4.78A40.12,40.12,0,0,1,265,45a40.76,40.76,0,0,1,3.68-3.5,4.42,4.42,0,0,1,2-1.16.58.58,0,0,1,.26.21A.94.94,0,0,1,271,41a11.16,11.16,0,0,1-.41,1.89c-.24.82-.57,1.83-1,3l-4.39,12.52c-.44,1.22-.76,2.19-1,2.86a15.51,15.51,0,0,0-.44,1.53,3.57,3.57,0,0,0-.11.82.36.36,0,0,0,.06.22A.34.34,0,0,0,264,64a3.41,3.41,0,0,0,1.38-.4,10.28,10.28,0,0,0,1.57-1c.51-.38,1-.75,1.41-1.12s.77-.69,1-.92a6.82,6.82,0,0,0,.5-.77l1-1.65c.38-.66.8-1.36,1.24-2.11s.88-1.47,1.31-2.18.83-1.32,1.21-1.84c1.63-2.22,3.09-4,4.35-5.46s2.32-2.55,3.16-3.38a14.08,14.08,0,0,1,1.2-1,9.4,9.4,0,0,1,1.26-.88,2.22,2.22,0,0,1,.88-.36c.17,0,.29,0,.32.14a.55.55,0,0,1,0,.36c0,.15,0,.31-.05.47a22.58,22.58,0,0,1-.6,2.77c-.32,1.22-.74,2.63-1.23,4.25s-1,3.3-1.57,5.08c-.42,1.25-.83,2.47-1.22,3.69S280.33,60,280,61s-.56,1.9-.73,2.61A6.79,6.79,0,0,0,279,65a4.49,4.49,0,0,0,.06.91,1.39,1.39,0,0,0,.32.74,1,1,0,0,0,.8.3,9.61,9.61,0,0,0,3.51-1.18,59,59,0,0,0,6-3.48l1.39-.93,1.74-1.13L294.66,59c.52-.35,1-.7,1.59-1.09S297.34,57.17,297.93,56.79ZM238.2,39.47a1.9,1.9,0,0,0-1.14.52,7.63,7.63,0,0,0-1.19,1.26,13.54,13.54,0,0,0-1,1.56,9,9,0,0,0-.67,1.39c-.29.72-.58,1.47-.85,2.27l-.9,2.55c-.33.89-.72,1.83-1.18,2.83a25.79,25.79,0,0,1-3.54,5.66,14.44,14.44,0,0,1-3.78,3.2,7.17,7.17,0,0,1-3.46,1,2.42,2.42,0,0,1-2.3-1.51,5.78,5.78,0,0,1-.41-2.32,14.45,14.45,0,0,1,.33-2.67,34.07,34.07,0,0,1,.89-3.42,35.28,35.28,0,0,1,1.31-3.52,19.18,19.18,0,0,1,1.57-3,25.78,25.78,0,0,1,4-4.79,12.4,12.4,0,0,1,4-2.54,12.64,12.64,0,0,1,4.47-.74,3.94,3.94,0,0,1,.92.16,7.26,7.26,0,0,1,1.21.46,4.79,4.79,0,0,1,1.1.7A2.11,2.11,0,0,1,238.2,39.47Zm10,17.32-.63-.84-3.27,2.47c-1.1.84-2.19,1.6-3.26,2.32a19.53,19.53,0,0,1-3.08,1.7,7.28,7.28,0,0,1-2.77.68,1.11,1.11,0,0,1-.68-.19,1.33,1.33,0,0,1-.47-.72,5.47,5.47,0,0,1-.17-1.53,9.92,9.92,0,0,1,.5-2q.48-1.56,1.32-4c.57-1.59,1.2-3.38,1.93-5.34.38-1,.73-1.82,1.07-2.52s.65-1.35,1-1.94a19.1,19.1,0,0,0,.84-1.87c.63-.56,1.14-1,1.49-1.42a3.25,3.25,0,0,0,.74-1.21,4.9,4.9,0,0,0,.2-1.61,2.88,2.88,0,0,0-.72-1.94,4.65,4.65,0,0,0-1.74-1.21,9.25,9.25,0,0,0-2.06-.64,10.13,10.13,0,0,0-1.74-.17,19.1,19.1,0,0,0-5.17.68A21.07,21.07,0,0,0,226,37.86a33.56,33.56,0,0,0-5.81,4.53,23.24,23.24,0,0,0-3.34,4A30.88,30.88,0,0,0,214.33,51a29.07,29.07,0,0,0-1.59,4.68,18,18,0,0,0-.55,4.22,12.43,12.43,0,0,0,.33,3.3,3.72,3.72,0,0,0,1.29,2.13,4.29,4.29,0,0,0,2.69.76,10.3,10.3,0,0,0,4.15-1,20.53,20.53,0,0,0,4.47-2.9,30.83,30.83,0,0,0,4.39-4.5h.27c-.09.37-.18.85-.3,1.4s-.21,1.17-.31,1.82-.19,1.29-.26,1.92-.1,1.18-.1,1.68a3.92,3.92,0,0,0,.56,2.18,1.88,1.88,0,0,0,1.6.88,7.4,7.4,0,0,0,2.69-.76,31.14,31.14,0,0,0,3.6-1.93q2-1.22,4-2.64c1.34-1,2.61-1.92,3.81-2.87S247.28,57.56,248.15,56.79Zm-56,6.67a4.78,4.78,0,0,1-.47.32l-.51.31a5.72,5.72,0,0,1-1.06.44,4.27,4.27,0,0,1-1.23.19,2.94,2.94,0,0,1-1.8-.63,4.15,4.15,0,0,1-1.34-1.79,6.23,6.23,0,0,1-.41-2.8l.21-.07a9,9,0,0,0,1.32,2.09A5.73,5.73,0,0,0,189,63,7.13,7.13,0,0,0,192.18,63.46Zm7.65-14.81a13.66,13.66,0,0,1-.21,2.07A26.3,26.3,0,0,1,199,53.6a23.27,23.27,0,0,1-1.23,3.22,17.45,17.45,0,0,1-1.86,3.1,10.8,10.8,0,0,1-1.67,1.87,7.37,7.37,0,0,1-3.37-.46,4.41,4.41,0,0,1-2.27-2.2,10.41,10.41,0,0,1-.82-4.5,14.24,14.24,0,0,1,.59-4.22,11.17,11.17,0,0,1,1.52-3.2A10,10,0,0,1,191.9,45a8.7,8.7,0,0,1,2.26-1.29,5.86,5.86,0,0,1,2.05-.42,3.73,3.73,0,0,1,2,.48,2.88,2.88,0,0,1,1.19,1.67A10.84,10.84,0,0,1,199.83,48.65Zm8.14-31a8.24,8.24,0,0,1-1.05,3.89,22.33,22.33,0,0,1-3,4.24q-2,2.28-4.9,5.15-2,2-3.72,3.44c-1.15,1-2.18,1.84-3.08,2.55s-1.65,1.35-2.24,1.87a114.72,114.72,0,0,1,5.76-12.88,40.24,40.24,0,0,1,5.43-8.1q2.56-2.79,4.6-2.81a2.06,2.06,0,0,1,1.76.62A3.16,3.16,0,0,1,208,17.63Zm4.73-2.23a9.56,9.56,0,0,0,0-1.18,2.79,2.79,0,0,0-.35-1.17,2.14,2.14,0,0,0-1-.91,5.1,5.1,0,0,0-2.07-.36,10,10,0,0,0-4.75,1.39,25.5,25.5,0,0,0-5.66,4.49,56.89,56.89,0,0,0-6.42,8,37.18,37.18,0,0,0-2,3.37c-.74,1.35-1.49,2.82-2.27,4.44s-1.51,3.22-2.23,4.87S184.54,41.55,184,43a2.45,2.45,0,0,0-.43.22,1.76,1.76,0,0,0-.34.27,4.23,4.23,0,0,0-.56.49.73.73,0,0,0-.2.48c0,.32.07.5.22.57s.37,0,.68-.15c-.41,1.27-.83,2.56-1.25,3.89s-.78,2.63-1.11,3.89-.6,2.45-.8,3.53a15.37,15.37,0,0,0-.31,2.74,18.07,18.07,0,0,0,.18,2.9,8.4,8.4,0,0,0,.85,2.79,5,5,0,0,0,2,2.1,6.71,6.71,0,0,0,3.54.84,10.49,10.49,0,0,0,3.52-.69,16.86,16.86,0,0,0,3.2-1.62,21.81,21.81,0,0,0,2.54-1.94,21.76,21.76,0,0,0,4-.67,34.76,34.76,0,0,0,3.93-1.3c1.27-.52,2.47-1.06,3.58-1.65A32.08,32.08,0,0,0,210.05,58L210,56.58a28.81,28.81,0,0,1-2.67,1.66c-1.08.59-2.23,1.14-3.45,1.66a27.41,27.41,0,0,1-3.54,1.3,11.59,11.59,0,0,1-3,.53A23.44,23.44,0,0,0,200.7,58a27.06,27.06,0,0,0,2.46-4.11,23.06,23.06,0,0,0,1.51-4,13.51,13.51,0,0,0,.51-3.43,9.9,9.9,0,0,0-.48-3.37,4.35,4.35,0,0,0-1.79-2.27,6.58,6.58,0,0,0-3.5-.83,9.33,9.33,0,0,0-2.63.46,16.58,16.58,0,0,0-3.26,1.39,19.07,19.07,0,0,0-3.41,2.37,18.59,18.59,0,0,0-3,3.43h-.21c.09-.28.22-.63.37-1.05l.51-1.32.51-1.38c.14-.38.29-.78.47-1.2s.33-.82.51-1.24c.91-.74,1.86-1.53,2.86-2.36s2-1.66,3-2.5,2-1.7,2.91-2.51q4.08-3.48,6.9-6.42a53.2,53.2,0,0,0,4.53-5.32,24.16,24.16,0,0,0,2.49-4.12A7.19,7.19,0,0,0,212.7,15.4ZM177.32,57.2a1.23,1.23,0,0,0-.11-.69.46.46,0,0,0-.35-.21h-.38a4.34,4.34,0,0,0-.76.47c-.44.32-1,.72-1.8,1.23s-1.68,1.06-2.74,1.65-2.22,1.16-3.53,1.73a16.76,16.76,0,0,1-2.07.77,19.7,19.7,0,0,1-2.62.63,15.18,15.18,0,0,1-2.76.27,4.84,4.84,0,0,1-2.75-.73,4.33,4.33,0,0,1-1.53-1.86,8.34,8.34,0,0,1-.65-2.46,18.53,18.53,0,0,1-.14-2.54,20.5,20.5,0,0,1,.76-5.39A26.48,26.48,0,0,1,157.94,45a23.31,23.31,0,0,1,3-4.32,14.48,14.48,0,0,1,3.45-3,7,7,0,0,1,3.58-1.11,1.46,1.46,0,0,1,1.14.33,1.54,1.54,0,0,1,.32,1.13,4.39,4.39,0,0,1-.06,1,8.38,8.38,0,0,1-.64,1.83l-.7,1.53a.81.81,0,0,0,.26.31.5.5,0,0,0,.3.11,4.61,4.61,0,0,0,1.47-.31,7.39,7.39,0,0,0,2.22-1.29,6.38,6.38,0,0,0,1.45-1.85,8.42,8.42,0,0,0,.72-2,8.68,8.68,0,0,0,.19-1.66,3,3,0,0,0-.45-1.8,1.92,1.92,0,0,0-1.16-.71,6.11,6.11,0,0,0-1.52-.13,9.4,9.4,0,0,0-2.64.5A23.27,23.27,0,0,0,165.29,35a30.38,30.38,0,0,0-3.91,2.42,28,28,0,0,0-3.82,3.32,36.79,36.79,0,0,0-4.66,5.92,29.75,29.75,0,0,0-3,6,17.63,17.63,0,0,0-1,5.56,10.8,10.8,0,0,0,.9,4.7,5.59,5.59,0,0,0,2.55,2.62,8.52,8.52,0,0,0,3.92.82,20.73,20.73,0,0,0,4.78-.63,35.5,35.5,0,0,0,4.8-1.59,46.44,46.44,0,0,0,4.42-2.09c1.38-.75,2.61-1.47,3.67-2.15s1.89-1.29,2.49-1.78S177.3,57.34,177.32,57.2Z" transform="translate(0 -2)"/><path d="M635.28,35.29a1.37,1.37,0,0,0-.33-1,1.18,1.18,0,0,0-.79-.23,4.36,4.36,0,0,0-.83.08,4.53,4.53,0,0,0-1.05.34c-.35.17-.66.32-.89.45a5.3,5.3,0,0,0-.69.44c-.22.19-.51.44-.85.78a8.5,8.5,0,0,0-1.19,1.78c-.35.68-.66,1.38-.95,2.1l-.84,2.1a15.75,15.75,0,0,1-.85,1.74,18.45,18.45,0,0,1-2.2,3c-1,1.11-2.1,2.3-3.38,3.57s-2.68,2.56-4.15,3.89A34.3,34.3,0,0,1,613,57a4.59,4.59,0,0,1-2.23,1c-.3,0-.46-.11-.51-.29a1.69,1.69,0,0,1,0-.55,6.73,6.73,0,0,1,.43-1.46c.28-.7.61-1.5,1-2.41s.72-1.78,1-2.66l4.24-10.93a24,24,0,0,0,.93-2.74,7.1,7.1,0,0,0,.26-1.71,1.08,1.08,0,0,0-.12-.56.39.39,0,0,0-.37-.2,4.38,4.38,0,0,0-1.34.29,9.56,9.56,0,0,0-1.73.86,8.44,8.44,0,0,0-1.7,1.38,5.76,5.76,0,0,0-1.21,1.85c-.19.41-.35.8-.5,1.18s-.32.84-.5,1.36l-.75,2c-.32.83-.72,1.9-1.24,3.21l-3.76,9.53c-.7,1.83-1.24,3.34-1.64,4.53a11.88,11.88,0,0,0-.59,2.29,9.88,9.88,0,0,0,.07,1.54,1.49,1.49,0,0,0,.37.88,1.32,1.32,0,0,0,.95.29,2.93,2.93,0,0,0,.78-.13,6,6,0,0,0,1.28-.55,10.63,10.63,0,0,0,1.7-1.2c1.4-1.15,2.77-2.33,4.13-3.53s2.65-2.4,3.9-3.58,2.43-2.24,3.52-3.25c.94-.87,1.84-1.74,2.72-2.6l2.56-2.55-.72,2.4c-.24.8-.46,1.6-.67,2.4s-.48,1.87-.69,2.84-.39,1.94-.5,2.87a18.76,18.76,0,0,0-.2,2.57,10.08,10.08,0,0,0,.35,2.47c.22.81.47,1.68.76,2.59a28.41,28.41,0,0,1,.77,3.06,20.87,20.87,0,0,1,.35,3.84,16.55,16.55,0,0,1-.83,4.88,30.25,30.25,0,0,1-2.12,5.08,38.14,38.14,0,0,1-2.9,4.72,31.88,31.88,0,0,1-3.13,3.82l.84.07a13.46,13.46,0,0,0,2.36-2,31.41,31.41,0,0,0,2.76-3.27q1.43-1.89,2.79-4.08a48.5,48.5,0,0,0,2.43-4.47A30.34,30.34,0,0,0,628,73.67a14.63,14.63,0,0,0,.66-4,19.68,19.68,0,0,0-.22-3,21.52,21.52,0,0,0-.48-2.28c-.18-.68-.33-1.36-.47-2a11.14,11.14,0,0,1-.22-2.17,25.71,25.71,0,0,1,.33-4.24,25,25,0,0,1,.77-3.31c.3-1,.58-1.81.84-2.53s.57-1.71.86-2.63.57-1.82.86-2.69.58-1.63.86-2.26a33.44,33.44,0,0,0,2-2.9,13.22,13.22,0,0,0,1.05-2,7,7,0,0,0,.37-1.35,7.26,7.26,0,0,0,.06-1M601.43,57.41l-.63-.83c-1.08.71-2.18,1.4-3.28,2.08s-2.19,1.31-3.27,1.88a22,22,0,0,1-3.06,1.36,8.66,8.66,0,0,1-2.7.52.66.66,0,0,1-.57-.25,1.33,1.33,0,0,1-.19-.61c0-.23,0-.45,0-.67a12.65,12.65,0,0,1,.33-2.31c.22-1,.51-2.15.89-3.49s.81-2.73,1.31-4.24,1-3,1.58-4.57c1-1.49,2-2.91,2.72-4.26a26,26,0,0,0,1.79-3.76,9,9,0,0,0,.63-3,1.33,1.33,0,0,0-.32-1,1.2,1.2,0,0,0-.79-.23,4.36,4.36,0,0,0-.83.08,4.24,4.24,0,0,0-1,.34c-.36.17-.66.32-.89.45a6.16,6.16,0,0,0-.7.44c-.22.19-.51.44-.84.78A8.84,8.84,0,0,0,590,38.28,19.71,19.71,0,0,0,589,40.83l-1,3c-.17.54-.32,1-.43,1.27s-.22.62-.32.91-.26.64-.43,1.09a4.51,4.51,0,0,1-1.34,1.1,14.91,14.91,0,0,1-3,1.32,26.66,26.66,0,0,1-4.68,1.06,17.66,17.66,0,0,1-2.5.2h-1c.17-.55.36-1.11.55-1.68s.39-1.13.56-1.72c.32-1,.67-2,1.07-3.15s.77-2.16,1.16-3.18c.26-.79.56-1.58.9-2.38s.62-1.51.87-2.11a5.05,5.05,0,0,0,.38-1.22,1.09,1.09,0,0,0-.11-.56.39.39,0,0,0-.37-.2,4.86,4.86,0,0,0-1.6.28,6.14,6.14,0,0,0-1.91,1A7.52,7.52,0,0,0,574,37.94a12,12,0,0,0-.87,1.84c-.31.76-.64,1.63-1,2.58s-.7,2-1.07,3-.78,2-1.19,3l-.63,1.53a4,4,0,0,0-1.93.7,1.62,1.62,0,0,0-.71,1.32c0,.38,0,.65,0,.82a.93.93,0,0,0,.16.44c.09.12.23.3.44.55l-1.18,3.68c-.14.54-.33,1.13-.55,1.78s-.45,1.29-.67,1.94-.4,1.23-.55,1.74a3.64,3.64,0,0,0-.17,2.12.84.84,0,0,0,.44.58,2.6,2.6,0,0,0,1.15.19,4.67,4.67,0,0,0,1.11-.13,4.4,4.4,0,0,0,1.21-.55,9.56,9.56,0,0,0,1.44-1.2,6.29,6.29,0,0,0,1-1.51,16.66,16.66,0,0,0,.94-2.11q.43-1.15.78-2.34c.23-.79.43-1.53.58-2.21s.27-1.25.34-1.71a4,4,0,0,0,.58,0l.68-.09c.38-.1.83-.19,1.33-.27a11.89,11.89,0,0,0,1.59-.36,32.5,32.5,0,0,0,3.94-1.35c1.1-.47,2-.9,2.74-1.29l1.15-.7a10.46,10.46,0,0,0,1-.7l-.62,1.88c-.18.54-.35,1.07-.5,1.58s-.3,1-.41,1.27l-1,3.48c-.35,1.2-.67,2.33-1,3.42s-.54,2-.72,2.85a12,12,0,0,0-.28,1.8,2,2,0,0,0,.22,1.06c.16.3.53.46,1.1.47A11.42,11.42,0,0,0,586.54,66c1.66-.7,3.74-1.68,6.26-3,1.3-.69,2.5-1.36,3.62-2s2.07-1.34,2.92-1.95S600.89,57.86,601.43,57.41ZM553.94,38.08a4.53,4.53,0,0,1-.68,2.18,17,17,0,0,1-1.87,2.53c-.8.92-1.7,1.89-2.74,2.94-.88.94-1.8,1.85-2.77,2.72s-1.87,1.68-2.72,2.42c-.49.42-1,.84-1.45,1.24l-1.4,1.2a20,20,0,0,1,.52-3.64,26.07,26.07,0,0,1,1.09-3.51,29,29,0,0,1,1.44-3.1,17.27,17.27,0,0,1,1.54-2.34,12.93,12.93,0,0,1,2.46-2.45,10,10,0,0,1,2.48-1.41,6.06,6.06,0,0,1,2.08-.45,3.14,3.14,0,0,1,1,.1,1.3,1.3,0,0,1,.74.49A1.68,1.68,0,0,1,553.94,38.08Zm8.9,20a1.72,1.72,0,0,0,0-.69,3,3,0,0,0-.33-.63c-.8.62-1.64,1.21-2.48,1.76s-1.73,1.05-2.6,1.51-2.09,1-3.25,1.54a24.72,24.72,0,0,1-3.59,1.18,16,16,0,0,1-3.66.48,8.07,8.07,0,0,1-3.62-.69,4.48,4.48,0,0,1-2.23-2.39,10.48,10.48,0,0,1-.55-4.58c.66-.62,1.33-1.25,2-1.86l2-1.82q1.13-1.08,2.37-2.22l2.42-2.22c.79-.72,1.51-1.41,2.17-2,1.65-1.55,3.1-3,4.36-4.3a26.94,26.94,0,0,0,2.92-3.53A5.28,5.28,0,0,0,559.85,35a2.62,2.62,0,0,0-.31-1.4,1.88,1.88,0,0,0-1.11-.74,7.45,7.45,0,0,0-2.12-.23,10.75,10.75,0,0,0-3,.52,19.15,19.15,0,0,0-3.78,1.65,26.17,26.17,0,0,0-4.2,2.91,35.09,35.09,0,0,0-8.21,10.08,27.7,27.7,0,0,0-2.24,5.43,16.51,16.51,0,0,0-.72,4.52c0,3,.73,5.22,2.19,6.62s3.65,2.09,6.57,2.08a23,23,0,0,0,5.64-.79,38.17,38.17,0,0,0,5.39-1.9,49.68,49.68,0,0,0,4.58-2.35,35.94,35.94,0,0,0,3.17-2.08C562.43,58.66,562.83,58.28,562.84,58.11Zm-32.25-1.32L530,56c-.72.54-1.53,1.16-2.44,1.88s-1.83,1.41-2.79,2.1a20.3,20.3,0,0,1-2.83,1.71,6,6,0,0,1-2.52.71,1.14,1.14,0,0,1-.91-.39,2,2,0,0,1-.34-1.28,7.14,7.14,0,0,1,.26-1.46c.17-.66.38-1.41.65-2.25s.54-1.69.83-2.56.58-1.66.84-2.4.46-1.32.62-1.76c.66-1.88,1.24-3.6,1.76-5.14s.94-2.88,1.26-4a12,12,0,0,0,.46-2.73,4.05,4.05,0,0,0-.3-1.8,1.21,1.21,0,0,0-.72-.68,2.8,2.8,0,0,0-.86-.09,4.64,4.64,0,0,0-1.39.24,11.24,11.24,0,0,0-2.2,1.07A32.14,32.14,0,0,0,516,39.5q-2,1.62-4.91,4.28a.41.41,0,0,0,0,.15c0,.06.06.13.1.2a1,1,0,0,0,.32.3.43.43,0,0,0,.37,0c1.18-1,2.14-1.72,2.83-2.21a8.4,8.4,0,0,1,1.67-1,2.89,2.89,0,0,1,1.21-.22,1,1,0,0,1,.73.25,1,1,0,0,1,.27.56,3,3,0,0,1,0,.58,11.24,11.24,0,0,1-.46,2.63q-.46,1.65-1.23,3.87t-1.72,4.91l-1.15,3.28c-.37,1.09-.72,2.12-1,3.08s-.55,1.77-.74,2.46a7.09,7.09,0,0,0-.29,1.4,9.23,9.23,0,0,0,.05,1.32,1.54,1.54,0,0,0,.46,1,2.21,2.21,0,0,0,1.44.39,5.72,5.72,0,0,0,1.77-.32,17.5,17.5,0,0,0,2.81-1.22c1.12-.58,2.53-1.41,4.18-2.49.59-.4,1.26-.85,2-1.38s1.49-1.07,2.25-1.64,1.46-1.11,2.09-1.63A18.56,18.56,0,0,0,530.59,56.79ZM495.91,39.47a1.9,1.9,0,0,0-1.14.52,7.63,7.63,0,0,0-1.19,1.26,12.34,12.34,0,0,0-1,1.56,8.3,8.3,0,0,0-.68,1.39c-.29.72-.58,1.47-.84,2.27s-.58,1.65-.91,2.55-.72,1.83-1.17,2.83a25.42,25.42,0,0,1-3.55,5.66,14.25,14.25,0,0,1-3.77,3.2,7.17,7.17,0,0,1-3.46,1,2.58,2.58,0,0,1-1.29-.33,2.62,2.62,0,0,1-1-1.18,6,6,0,0,1-.4-2.32,14.32,14.32,0,0,1,.32-2.67,31.73,31.73,0,0,1,.9-3.42A35.28,35.28,0,0,1,478,48.29a19.18,19.18,0,0,1,1.57-3,25.78,25.78,0,0,1,4-4.79,12.29,12.29,0,0,1,4-2.54,12.58,12.58,0,0,1,4.46-.74,4,4,0,0,1,.93.16,7.61,7.61,0,0,1,1.21.46,5,5,0,0,1,1.1.7A2.11,2.11,0,0,1,495.91,39.47Zm9.94,17.32-.62-.84L502,58.42c-1.1.84-2.19,1.6-3.26,2.32a20,20,0,0,1-3.08,1.7,7.28,7.28,0,0,1-2.77.68,1.16,1.16,0,0,1-.69-.19,1.38,1.38,0,0,1-.46-.72,5.11,5.11,0,0,1-.17-1.53,10.36,10.36,0,0,1,.49-2c.33-1,.77-2.36,1.33-4s1.2-3.38,1.93-5.34c.37-1,.73-1.82,1.07-2.52s.65-1.35.95-1.94a17,17,0,0,0,.83-1.87,20.42,20.42,0,0,0,1.5-1.42,3.25,3.25,0,0,0,.74-1.21,4.9,4.9,0,0,0,.2-1.61,2.93,2.93,0,0,0-.72-1.94,4.65,4.65,0,0,0-1.74-1.21,9.41,9.41,0,0,0-2.06-.64,10.31,10.31,0,0,0-1.74-.17,19.1,19.1,0,0,0-5.17.68,21.07,21.07,0,0,0-5.43,2.37,34,34,0,0,0-5.82,4.53,24.18,24.18,0,0,0-3.34,4A30.82,30.82,0,0,0,472,51a28.12,28.12,0,0,0-1.59,4.68,18,18,0,0,0-.56,4.22,12.83,12.83,0,0,0,.34,3.3,3.72,3.72,0,0,0,1.29,2.13,4.27,4.27,0,0,0,2.69.76,10.37,10.37,0,0,0,4.15-1,20.77,20.77,0,0,0,4.47-2.9,30.29,30.29,0,0,0,4.38-4.5h.28c-.09.37-.18.85-.3,1.4s-.21,1.17-.31,1.82-.19,1.29-.26,1.92a15,15,0,0,0-.1,1.68,3.92,3.92,0,0,0,.55,2.18,1.9,1.9,0,0,0,1.6.88,7.3,7.3,0,0,0,2.69-.76A31.21,31.21,0,0,0,495,64.88q2-1.22,4-2.64c1.34-1,2.61-1.92,3.81-2.87S505,57.56,505.85,56.79ZM425.61,39.47a1.9,1.9,0,0,0-1.14.52,7.63,7.63,0,0,0-1.19,1.26,12.34,12.34,0,0,0-1,1.56,9.16,9.16,0,0,0-.68,1.39c-.29.72-.57,1.47-.84,2.27s-.58,1.65-.91,2.55-.71,1.83-1.17,2.83a25.79,25.79,0,0,1-3.54,5.66,14.44,14.44,0,0,1-3.78,3.2,7.17,7.17,0,0,1-3.46,1,2.52,2.52,0,0,1-1.28-.33,2.58,2.58,0,0,1-1-1.18,6,6,0,0,1-.4-2.32,14.32,14.32,0,0,1,.32-2.67,31.73,31.73,0,0,1,.9-3.42,35.28,35.28,0,0,1,1.31-3.52,19.18,19.18,0,0,1,1.57-3,25.78,25.78,0,0,1,4-4.79,12.29,12.29,0,0,1,4-2.54,12.62,12.62,0,0,1,4.46-.74,3.92,3.92,0,0,1,.93.16,7.26,7.26,0,0,1,1.21.46,5,5,0,0,1,1.1.7A2.11,2.11,0,0,1,425.61,39.47Zm9.95,17.32-.63-.84-3.27,2.47c-1.1.84-2.19,1.6-3.26,2.32a20,20,0,0,1-3.08,1.7,7.28,7.28,0,0,1-2.77.68,1.16,1.16,0,0,1-.69-.19,1.38,1.38,0,0,1-.46-.72,5.11,5.11,0,0,1-.17-1.53,9.92,9.92,0,0,1,.5-2q.48-1.56,1.32-4c.57-1.59,1.2-3.38,1.93-5.34.37-1,.73-1.82,1.07-2.52s.65-1.35.95-1.94a17,17,0,0,0,.83-1.87,20.42,20.42,0,0,0,1.5-1.42,3.25,3.25,0,0,0,.74-1.21,4.9,4.9,0,0,0,.2-1.61,2.93,2.93,0,0,0-.72-1.94,4.65,4.65,0,0,0-1.74-1.21,9.41,9.41,0,0,0-2.06-.64,10.31,10.31,0,0,0-1.74-.17,19.1,19.1,0,0,0-5.17.68,21.07,21.07,0,0,0-5.43,2.37,34,34,0,0,0-5.82,4.53,24.18,24.18,0,0,0-3.34,4A30.82,30.82,0,0,0,401.74,51a28.12,28.12,0,0,0-1.59,4.68,18,18,0,0,0-.56,4.22,12.83,12.83,0,0,0,.34,3.3,3.72,3.72,0,0,0,1.29,2.13,4.27,4.27,0,0,0,2.69.76,10.37,10.37,0,0,0,4.15-1,20.77,20.77,0,0,0,4.47-2.9,30.29,30.29,0,0,0,4.38-4.5h.28c-.09.37-.18.85-.3,1.4s-.21,1.17-.31,1.82-.19,1.29-.26,1.92a15,15,0,0,0-.1,1.68,3.84,3.84,0,0,0,.56,2.18,1.88,1.88,0,0,0,1.6.88,7.31,7.31,0,0,0,2.68-.76,31.21,31.21,0,0,0,3.61-1.93q2-1.22,4-2.64c1.34-1,2.61-1.92,3.81-2.87S434.69,57.56,435.56,56.79ZM398,57.41l-.63-.83c-1.08.71-2.18,1.4-3.28,2.08s-2.19,1.31-3.27,1.88a21,21,0,0,1-3.06,1.36,8.6,8.6,0,0,1-2.7.52.67.67,0,0,1-.57-.25,1.32,1.32,0,0,1-.18-.61,5,5,0,0,1,0-.67,12.45,12.45,0,0,1,.32-2.31c.22-1,.51-2.15.89-3.49s.81-2.73,1.31-4.24,1-3,1.58-4.57c1-1.49,2-2.91,2.72-4.26a26,26,0,0,0,1.79-3.76,8.75,8.75,0,0,0,.64-3,1.33,1.33,0,0,0-.33-1,1.18,1.18,0,0,0-.79-.23,4.36,4.36,0,0,0-.83.08,4.32,4.32,0,0,0-1,.34c-.36.17-.67.32-.9.45a5.3,5.3,0,0,0-.69.44c-.22.19-.51.44-.85.78a9.42,9.42,0,0,0-1.52,2.15,19.7,19.7,0,0,0-1.06,2.55c-.31.92-.63,1.91-1,3-.17.54-.32,1-.43,1.27s-.22.62-.32.91-.25.64-.43,1.09a4.3,4.3,0,0,1-1.33,1.1,15,15,0,0,1-3,1.32,26.53,26.53,0,0,1-4.67,1.06,17.9,17.9,0,0,1-2.51.2h-1c.17-.55.36-1.11.56-1.68s.38-1.13.55-1.72c.33-1,.68-2,1.07-3.15s.78-2.16,1.16-3.18c.27-.79.57-1.58.9-2.38l.87-2.11a5.25,5.25,0,0,0,.39-1.22,1.08,1.08,0,0,0-.12-.56.39.39,0,0,0-.37-.2,4.9,4.9,0,0,0-1.6.28,6.1,6.1,0,0,0-1.9,1,7.54,7.54,0,0,0-1.79,2.09,12,12,0,0,0-.87,1.84c-.31.76-.63,1.63-1,2.58s-.7,2-1.07,3-.77,2-1.19,3l-.63,1.53a3.9,3.9,0,0,0-1.92.7,1.6,1.6,0,0,0-.72,1.32c0,.38,0,.65,0,.82a1,1,0,0,0,.17.44c.09.12.23.3.44.55l-1.19,3.68c-.14.54-.32,1.13-.54,1.78s-.45,1.29-.67,1.94-.41,1.23-.56,1.74a4.76,4.76,0,0,0-.24,1.15,3.44,3.44,0,0,0,.08,1,.82.82,0,0,0,.44.58,2.54,2.54,0,0,0,1.15.19,4.67,4.67,0,0,0,1.11-.13,4.35,4.35,0,0,0,1.2-.55,9.09,9.09,0,0,0,1.44-1.2,6.29,6.29,0,0,0,1-1.51,16.66,16.66,0,0,0,.94-2.11q.44-1.15.78-2.34c.23-.79.43-1.53.58-2.21s.28-1.25.35-1.71a4.14,4.14,0,0,0,.58,0l.67-.09c.38-.1.83-.19,1.33-.27a11.55,11.55,0,0,0,1.59-.36,32.5,32.5,0,0,0,3.94-1.35c1.1-.47,2-.9,2.74-1.29l1.16-.7a11.9,11.9,0,0,0,1-.7l-.63,1.88c-.17.54-.35,1.07-.5,1.58s-.3,1-.4,1.27c-.34,1.13-.68,2.29-1,3.48s-.67,2.33-1,3.42-.53,2-.72,2.85a13.49,13.49,0,0,0-.28,1.8,2,2,0,0,0,.22,1.06,1.2,1.2,0,0,0,1.11.47A11.38,11.38,0,0,0,383.13,66c1.66-.7,3.75-1.68,6.26-3,1.3-.69,2.51-1.36,3.62-2s2.08-1.34,2.92-1.95S397.49,57.86,398,57.41ZM701,40.44a9.86,9.86,0,0,1-.29,2.27,18.26,18.26,0,0,1-.86,2.63A17.11,17.11,0,0,1,698.43,48a15.58,15.58,0,0,1-1.85,2.43,24,24,0,0,1-2.11-1.53,7.2,7.2,0,0,1-1.4-1.5,5.2,5.2,0,0,1-.78-1.81,11.59,11.59,0,0,1-.23-2.47,8.31,8.31,0,0,1,.82-3.71A6.06,6.06,0,0,1,695.06,37a5.61,5.61,0,0,1,3.05-.88,2.45,2.45,0,0,1,1.15.28,2.78,2.78,0,0,1,1.17,1.24A6.2,6.2,0,0,1,701,40.44Zm10.36,17.11-.62-.83c-1.47.94-2.88,1.79-4.22,2.57a36.21,36.21,0,0,1-3.64,1.86,7.45,7.45,0,0,1-2.65.71,1.24,1.24,0,0,1-.83-.25,1,1,0,0,1-.3-.6,3.21,3.21,0,0,1,0-.68,4.9,4.9,0,0,1,.28-1.38c.19-.52.39-1.05.63-1.62s.44-1.15.62-1.71a5.75,5.75,0,0,0,.28-1.62,2.38,2.38,0,0,0-.46-1.53,3.06,3.06,0,0,0-1.07-.85L698,51a26.84,26.84,0,0,0,1.77-2.07c.56-.71,1.08-1.44,1.57-2.17A27,27,0,0,0,703,44.06a17.79,17.79,0,0,0,1.28-3,11.18,11.18,0,0,0,.51-3.11,5.9,5.9,0,0,0-.41-2.4,2.86,2.86,0,0,0-1.44-1.49,6.7,6.7,0,0,0-2.81-.5,8.39,8.39,0,0,0-2.2.36A17.19,17.19,0,0,0,695.2,35a19,19,0,0,0-2.88,1.7A15.61,15.61,0,0,0,689.75,39a10.59,10.59,0,0,0-1.84,2.86,8.47,8.47,0,0,0-.72,3.41,8.25,8.25,0,0,0,.67,3.41A7.63,7.63,0,0,0,689.49,51a13.69,13.69,0,0,0,2.07,1.66c.72.47,1.37.92,2,1.34-.32.36-.73.82-1.27,1.36s-1.13,1.11-1.79,1.72-1.34,1.18-2,1.72a14,14,0,0,1-3.17,2,7.52,7.52,0,0,1-3.16.7,2.79,2.79,0,0,1-1.82-.58,3.32,3.32,0,0,1-.93-1.38,5.63,5.63,0,0,1-.3-1.63,6,6,0,0,1,.06-1.28,4,4,0,0,0-1.21.6,6.45,6.45,0,0,0-1.3,1.23,7.07,7.07,0,0,0-1,1.7,5.62,5.62,0,0,0-.43,2.1,5.85,5.85,0,0,0,.11,1,4,4,0,0,0,.46,1.22,2.88,2.88,0,0,0,1,1.06,3.6,3.6,0,0,0,1.86.45,9.52,9.52,0,0,0,3.77-.74A14.75,14.75,0,0,0,685,63.75a26.42,26.42,0,0,0,3.26-2.51c1.19-1.05,2.2-2,3-2.8s1.48-1.54,2-2.15,1-1.15,1.35-1.59a.26.26,0,0,0,.15.07.6.6,0,0,1,.2.07c.1.09.18.18.25.25a.48.48,0,0,1,.1.31,6,6,0,0,1-.43,1.5c-.27.71-.57,1.51-.93,2.41s-.66,1.78-.93,2.64a7.74,7.74,0,0,0-.43,2.21,2.76,2.76,0,0,0,.15.88,1.54,1.54,0,0,0,.58.74,2.11,2.11,0,0,0,1.22.33,6.86,6.86,0,0,0,1.88-.26,14.91,14.91,0,0,0,2.69-1c1.08-.48,2.42-1.2,4.06-2.14,1.12-.66,2.19-1.31,3.22-2s1.95-1.24,2.78-1.8S710.78,57.93,711.32,57.55Zm-34.75-.14-.63-.83c-1.06.71-2.14,1.4-3.22,2.08s-2.16,1.31-3.22,1.88a21.13,21.13,0,0,1-3.07,1.36,9,9,0,0,1-2.8.52.66.66,0,0,1-.57-.3,1.77,1.77,0,0,1-.19-.88,8.83,8.83,0,0,1,.27-1.28c.19-.67.41-1.47.69-2.4s.57-1.89.87-2.87.58-1.89.82-2.7.43-1.44.55-1.88c.27-.92.56-1.83.85-2.76s.57-1.8.86-2.62.58-1.57.86-2.2a32,32,0,0,0,2.11-3.23,13.06,13.06,0,0,0,1.07-2.36,5.56,5.56,0,0,0,.3-1.65A1.05,1.05,0,0,0,671,34a4.84,4.84,0,0,0-1.92.42,7.46,7.46,0,0,0-2.39,1.67,10.37,10.37,0,0,0-1.57,2.48c-.45.94-.84,1.88-1.19,2.8a21.4,21.4,0,0,1-1.06,2.44c-.83,1.18-1.6,2.22-2.33,3.11s-1.46,1.7-2.21,2.44-1.52,1.51-2.36,2.29-1.79,1.63-2.84,2.59A37.62,37.62,0,0,1,649.86,57a4.75,4.75,0,0,1-2.23,1c-.3,0-.46-.11-.51-.29a2,2,0,0,1,0-.55,4.6,4.6,0,0,1,.3-1c.2-.52.43-1.13.71-1.83s.54-1.38.81-2,.46-1.22.61-1.64l4.24-10.93a18.57,18.57,0,0,0,.76-2.06,12.27,12.27,0,0,0,.32-1.44c0-.38.09-.69.11-1a1.08,1.08,0,0,0-.12-.56.39.39,0,0,0-.37-.2,4.63,4.63,0,0,0-1.32.24,7.36,7.36,0,0,0-1.65.78,8.48,8.48,0,0,0-1.66,1.35,7.69,7.69,0,0,0-1.35,2c-.37.8-.79,1.86-1.27,3.17s-1,2.85-1.72,4.62l-3.76,9.53c-.5,1.23-.9,2.25-1.19,3.08s-.53,1.52-.68,2.07a10.23,10.23,0,0,0-.29,1.39,7.78,7.78,0,0,0-.07,1,2.45,2.45,0,0,0,.36,1.47,1.21,1.21,0,0,0,1,.48,3.89,3.89,0,0,0,1.38-.39,11.92,11.92,0,0,0,2.37-1.49c1.46-1.15,2.89-2.33,4.27-3.53s2.68-2.4,3.92-3.58,2.39-2.24,3.43-3.25,1.84-1.74,2.71-2.6,1.71-1.72,2.51-2.55c-.07.24-.14.49-.23.74a8.05,8.05,0,0,1-.26.79c-.14.52-.31,1.11-.51,1.79s-.43,1.41-.67,2.24l-1,3.42c-.35,1.15-.68,2.27-1,3.32s-.53,2-.72,2.84a11.13,11.13,0,0,0-.28,2,2,2,0,0,0,.23,1.06c.16.3.53.46,1.1.47a10.91,10.91,0,0,0,3.63-.89A43.93,43.93,0,0,0,667.94,63l5.17-3.2A34,34,0,0,0,676.57,57.41Zm-326-19.33a4.53,4.53,0,0,1-.68,2.18A16.28,16.28,0,0,1,348,42.79c-.8.92-1.7,1.89-2.73,2.94s-1.81,1.85-2.77,2.72-1.88,1.68-2.73,2.42c-.48.42-1,.84-1.45,1.24l-1.4,1.2a20,20,0,0,1,.52-3.64,26.07,26.07,0,0,1,1.09-3.51,29,29,0,0,1,1.44-3.1,17.27,17.27,0,0,1,1.54-2.34A12.93,12.93,0,0,1,344,38.27a10.22,10.22,0,0,1,2.48-1.41,6.11,6.11,0,0,1,2.09-.45,3.08,3.08,0,0,1,1,.1,1.3,1.3,0,0,1,.74.49A1.68,1.68,0,0,1,350.53,38.08Zm8.91,20a2.19,2.19,0,0,0,0-.69,3.11,3.11,0,0,0-.34-.63c-.8.62-1.63,1.21-2.48,1.76s-1.73,1.05-2.6,1.51-2.08,1-3.24,1.54a24.84,24.84,0,0,1-3.6,1.18,15.92,15.92,0,0,1-3.66.48,8.1,8.1,0,0,1-3.62-.69,4.46,4.46,0,0,1-2.22-2.39,10.46,10.46,0,0,1-.56-4.58c.66-.62,1.33-1.25,2-1.86s1.35-1.23,2-1.82l2.37-2.22,2.42-2.22c.79-.72,1.51-1.41,2.17-2,1.66-1.55,3.11-3,4.36-4.3a26.94,26.94,0,0,0,2.92-3.53A5.22,5.22,0,0,0,356.45,35a2.62,2.62,0,0,0-.32-1.4,1.88,1.88,0,0,0-1.11-.74,7.45,7.45,0,0,0-2.12-.23,10.75,10.75,0,0,0-3,.52,19.15,19.15,0,0,0-3.78,1.65,26.12,26.12,0,0,0-4.19,2.91A33.61,33.61,0,0,0,337.6,42a35.08,35.08,0,0,0-3.92,5.77,28.41,28.41,0,0,0-2.25,5.43,16.51,16.51,0,0,0-.72,4.52c0,3,.73,5.22,2.19,6.62s3.65,2.09,6.57,2.08a23,23,0,0,0,5.64-.79,37.73,37.73,0,0,0,5.39-1.9,49.68,49.68,0,0,0,4.58-2.35,37.93,37.93,0,0,0,3.18-2.08C359,58.66,359.43,58.28,359.44,58.11ZM313.07,37.87c.29,0,.44.11.44.33a2.53,2.53,0,0,1-.19.88c-.14.36-.26.77-.39,1.22a16.33,16.33,0,0,1-.77,2c-.32.76-.69,1.53-1.1,2.3s-.83,1.48-1.25,2.13a10.34,10.34,0,0,1-1.2,1.53,12,12,0,0,1,.31-1.27c.16-.61.37-1.3.62-2.08s.52-1.59.83-2.41.62-1.59.93-2.3a12,12,0,0,1,.94-1.7C312.55,38.1,312.82,37.88,313.07,37.87Zm-6,20.24a22.38,22.38,0,0,1,.38-4.19,19,19,0,0,1,.74-2.77c.76-1,1.59-2.14,2.48-3.46s1.73-2.68,2.54-4.1a32.45,32.45,0,0,0,2-4.05,9.47,9.47,0,0,0,.8-3.34,4.37,4.37,0,0,0-.2-1.71c-.15-.31-.47-.46-1-.45a3.5,3.5,0,0,0-2,1.08,21.44,21.44,0,0,0-2.67,3c-1,1.3-2,2.83-3.11,4.61a19.2,19.2,0,0,0-1.16,2c-.47.9-1,1.94-1.49,3.13s-1,2.46-1.47,3.78a37.55,37.55,0,0,0-1.14,3.94,17.45,17.45,0,0,0-.45,3.62,10.49,10.49,0,0,0,.75,4.24,4.67,4.67,0,0,0,2.05,2.25,6,6,0,0,0,3,.68,10,10,0,0,0,6-2.26,29.8,29.8,0,0,0,6.14-6.86,36.13,36.13,0,0,0,3.23-5.6,30.34,30.34,0,0,0,1.91-5.38,19.69,19.69,0,0,0,.63-4.67,26.19,26.19,0,0,0-.59-5.53,27.55,27.55,0,0,0-1.52-4.78,39.45,39.45,0,0,0-2.05-4.17c-.74-1.28-1.63-2.4-2.19-3.61a3.9,3.9,0,0,1,1.14-5.12,18.88,18.88,0,0,1,5.16-3,28.85,28.85,0,0,1,4.11-1.59,15.44,15.44,0,0,1,3.18-.31,14.34,14.34,0,0,1,2.29.2l1.65.35c.72.14,1.41.3,2.08.49l1.83.55a12,12,0,0,0,1.34.37,1.15,1.15,0,0,0,.92-.37,4.85,4.85,0,0,0,.9-1,3.93,3.93,0,0,0,.48-1,1.29,1.29,0,0,0,0-1,1.4,1.4,0,0,0-.82-.5c-.41-.11-.92-.21-1.54-.33s-1.52-.23-2.53-.31a26.71,26.71,0,0,0-3.35,0,20.36,20.36,0,0,0-3.65.58c-1.62.38-3.06.72-4.3,1.07s-2.37.7-3.35,1.07-1.92.76-2.78,1.17-1.75.89-2.62,1.4-2.74,1.68-3.77,2.31c-4.52,2.78-2.8,4.7-1,7.93.63,1.11,1.47,2.18,2.2,3.41s1.4,2.51,2,3.83a27.39,27.39,0,0,1,1.48,4,15.33,15.33,0,0,1,.57,3.95,32.58,32.58,0,0,1-.43,5.21,34.91,34.91,0,0,1-1.23,5.23,25.58,25.58,0,0,1-2,4.66,15.86,15.86,0,0,1-3.52,4.48,5.43,5.43,0,0,1-3.57,1.36,2.06,2.06,0,0,1-1.51-.6,3.44,3.44,0,0,1-.81-1.58A9.26,9.26,0,0,1,307.08,58.11Zm-9.15-1.32L297.3,56c-1.09.71-2.19,1.4-3.29,2.11s-2.18,1.35-3.21,1.93a27,27,0,0,1-2.8,1.4,5.73,5.73,0,0,1-2,.54c-.3,0-.48-.1-.54-.29a2,2,0,0,1-.08-.75,7.13,7.13,0,0,1,.28-1.39c.18-.66.4-1.43.68-2.31l.87-2.69c.3-.91.58-1.76.82-2.54s.43-1.39.55-1.85c.47-1.54.92-3,1.36-4.45s.84-2.75,1.19-4,.62-2.24.82-3.1a9.1,9.1,0,0,0,.31-1.92,2,2,0,0,0-.18-1,.68.68,0,0,0-.65-.37,5.62,5.62,0,0,0-2.42.76,22.59,22.59,0,0,0-3.84,2.55,57.54,57.54,0,0,0-5.3,4.8q-3,3-6.8,7.47h-.21l.91-2.56c.37-1.05.78-2.21,1.21-3.45s.83-2.47,1.22-3.68.69-2.27.93-3.21a9.74,9.74,0,0,0,.39-2,1.45,1.45,0,0,0-.33-1.06,1.1,1.1,0,0,0-.79-.26,5.21,5.21,0,0,0-2.6.9,29.86,29.86,0,0,0-3.51,2.61c-1.29,1.12-2.74,2.43-4.32,3.93-.79.74-1.61,1.6-2.47,2.56s-1.69,2-2.51,3-1.59,2.07-2.3,3.07-1.29,1.88-1.76,2.68l-.28-.21c.31-.73.61-1.47.89-2.24s.57-1.52.85-2.28.69-1.78,1-2.74.67-1.91,1-2.87.61-1.87.89-2.74c.21-.66.43-1.33.64-2s.4-1.28.55-1.84a7.37,7.37,0,0,0,.27-1.22,1,1,0,0,0-.12-.56.37.37,0,0,0-.37-.2,4.05,4.05,0,0,0-1.33.29,10,10,0,0,0-1.74.86,8.38,8.38,0,0,0-1.69,1.38,5.79,5.79,0,0,0-1.22,1.85c-.17.42-.38,1-.61,1.68s-.48,1.49-.72,2.31-.49,1.62-.7,2.4-.4,1.42-.54,2c-.28.92-.55,1.82-.8,2.69s-.53,1.72-.82,2.62-.62,1.85-1,2.87-.76,2.17-1.23,3.43c-.25.64-.51,1.31-.75,2s-.44,1.33-.6,1.9a6.19,6.19,0,0,0-.25,1.23,1.49,1.49,0,0,0,.15.73.67.67,0,0,0,.62.31,3.9,3.9,0,0,0,1.71-.48,8.81,8.81,0,0,0,1.65-1.07,9.13,9.13,0,0,0,1.16-1.09c.47-1,1.08-2.25,1.83-3.67s1.61-3,2.6-4.56,2-3.2,3.23-4.78A40.12,40.12,0,0,1,265,45a40.76,40.76,0,0,1,3.68-3.5,4.42,4.42,0,0,1,2-1.16.58.58,0,0,1,.26.21A.94.94,0,0,1,271,41a11.16,11.16,0,0,1-.41,1.89c-.24.82-.57,1.83-1,3l-4.39,12.52c-.44,1.22-.76,2.19-1,2.86a15.51,15.51,0,0,0-.44,1.53,3.57,3.57,0,0,0-.11.82.36.36,0,0,0,.06.22A.34.34,0,0,0,264,64a3.41,3.41,0,0,0,1.38-.4,10.28,10.28,0,0,0,1.57-1c.51-.38,1-.75,1.41-1.12s.77-.69,1-.92a6.82,6.82,0,0,0,.5-.77l1-1.65c.38-.66.8-1.36,1.24-2.11s.88-1.47,1.31-2.18.83-1.32,1.21-1.84c1.63-2.22,3.09-4,4.35-5.46s2.32-2.55,3.16-3.38a14.08,14.08,0,0,1,1.2-1,9.4,9.4,0,0,1,1.26-.88,2.22,2.22,0,0,1,.88-.36c.17,0,.29,0,.32.14a.55.55,0,0,1,0,.36c0,.15,0,.31-.05.47a22.58,22.58,0,0,1-.6,2.77c-.32,1.22-.74,2.63-1.23,4.25s-1,3.3-1.57,5.08c-.42,1.25-.83,2.47-1.22,3.69S280.33,60,280,61s-.56,1.9-.73,2.61A6.79,6.79,0,0,0,279,65a4.49,4.49,0,0,0,.06.91,1.39,1.39,0,0,0,.32.74,1,1,0,0,0,.8.3,9.61,9.61,0,0,0,3.51-1.18,59,59,0,0,0,6-3.48l1.39-.93,1.74-1.13L294.66,59c.52-.35,1-.7,1.59-1.09S297.34,57.17,297.93,56.79ZM238.2,39.47a1.9,1.9,0,0,0-1.14.52,7.63,7.63,0,0,0-1.19,1.26,13.54,13.54,0,0,0-1,1.56,9,9,0,0,0-.67,1.39c-.29.72-.58,1.47-.85,2.27l-.9,2.55c-.33.89-.72,1.83-1.18,2.83a25.79,25.79,0,0,1-3.54,5.66,14.44,14.44,0,0,1-3.78,3.2,7.17,7.17,0,0,1-3.46,1,2.42,2.42,0,0,1-2.3-1.51,5.78,5.78,0,0,1-.41-2.32,14.45,14.45,0,0,1,.33-2.67,34.07,34.07,0,0,1,.89-3.42,35.28,35.28,0,0,1,1.31-3.52,19.18,19.18,0,0,1,1.57-3,25.78,25.78,0,0,1,4-4.79,12.4,12.4,0,0,1,4-2.54,12.64,12.64,0,0,1,4.47-.74,3.94,3.94,0,0,1,.92.16,7.26,7.26,0,0,1,1.21.46,4.79,4.79,0,0,1,1.1.7A2.11,2.11,0,0,1,238.2,39.47Zm10,17.32-.63-.84-3.27,2.47c-1.1.84-2.19,1.6-3.26,2.32a19.53,19.53,0,0,1-3.08,1.7,7.28,7.28,0,0,1-2.77.68,1.11,1.11,0,0,1-.68-.19,1.33,1.33,0,0,1-.47-.72,5.47,5.47,0,0,1-.17-1.53,9.92,9.92,0,0,1,.5-2q.48-1.56,1.32-4c.57-1.59,1.2-3.38,1.93-5.34.38-1,.73-1.82,1.07-2.52s.65-1.35,1-1.94a19.1,19.1,0,0,0,.84-1.87c.63-.56,1.14-1,1.49-1.42a3.25,3.25,0,0,0,.74-1.21,4.9,4.9,0,0,0,.2-1.61,2.88,2.88,0,0,0-.72-1.94,4.65,4.65,0,0,0-1.74-1.21,9.25,9.25,0,0,0-2.06-.64,10.13,10.13,0,0,0-1.74-.17,19.1,19.1,0,0,0-5.17.68A21.07,21.07,0,0,0,226,37.86a33.56,33.56,0,0,0-5.81,4.53,23.24,23.24,0,0,0-3.34,4A30.88,30.88,0,0,0,214.33,51a29.07,29.07,0,0,0-1.59,4.68,18,18,0,0,0-.55,4.22,12.43,12.43,0,0,0,.33,3.3,3.72,3.72,0,0,0,1.29,2.13,4.29,4.29,0,0,0,2.69.76,10.3,10.3,0,0,0,4.15-1,20.53,20.53,0,0,0,4.47-2.9,30.83,30.83,0,0,0,4.39-4.5h.27c-.09.37-.18.85-.3,1.4s-.21,1.17-.31,1.82-.19,1.29-.26,1.92-.1,1.18-.1,1.68a3.92,3.92,0,0,0,.56,2.18,1.88,1.88,0,0,0,1.6.88,7.4,7.4,0,0,0,2.69-.76,31.14,31.14,0,0,0,3.6-1.93q2-1.22,4-2.64c1.34-1,2.61-1.92,3.81-2.87S247.28,57.56,248.15,56.79Zm-56,6.67a4.78,4.78,0,0,1-.47.32l-.51.31a5.72,5.72,0,0,1-1.06.44,4.27,4.27,0,0,1-1.23.19,2.94,2.94,0,0,1-1.8-.63,4.15,4.15,0,0,1-1.34-1.79,6.23,6.23,0,0,1-.41-2.8l.21-.07a9,9,0,0,0,1.32,2.09A5.73,5.73,0,0,0,189,63,7.13,7.13,0,0,0,192.18,63.46Zm7.65-14.81a13.66,13.66,0,0,1-.21,2.07A26.3,26.3,0,0,1,199,53.6a23.27,23.27,0,0,1-1.23,3.22,17.45,17.45,0,0,1-1.86,3.1,10.8,10.8,0,0,1-1.67,1.87,7.37,7.37,0,0,1-3.37-.46,4.41,4.41,0,0,1-2.27-2.2,10.41,10.41,0,0,1-.82-4.5,14.24,14.24,0,0,1,.59-4.22,11.17,11.17,0,0,1,1.52-3.2A10,10,0,0,1,191.9,45a8.7,8.7,0,0,1,2.26-1.29,5.86,5.86,0,0,1,2.05-.42,3.73,3.73,0,0,1,2,.48,2.88,2.88,0,0,1,1.19,1.67A10.84,10.84,0,0,1,199.83,48.65Zm8.14-31a8.24,8.24,0,0,1-1.05,3.89,22.33,22.33,0,0,1-3,4.24q-2,2.28-4.9,5.15-2,2-3.72,3.44c-1.15,1-2.18,1.84-3.08,2.55s-1.65,1.35-2.24,1.87a114.72,114.72,0,0,1,5.76-12.88,40.24,40.24,0,0,1,5.43-8.1q2.56-2.79,4.6-2.81a2.06,2.06,0,0,1,1.76.62A3.16,3.16,0,0,1,208,17.63Zm4.73-2.23a9.56,9.56,0,0,0,0-1.18,2.79,2.79,0,0,0-.35-1.17,2.14,2.14,0,0,0-1-.91,5.1,5.1,0,0,0-2.07-.36,10,10,0,0,0-4.75,1.39,25.5,25.5,0,0,0-5.66,4.49,56.89,56.89,0,0,0-6.42,8,37.18,37.18,0,0,0-2,3.37c-.74,1.35-1.49,2.82-2.27,4.44s-1.51,3.22-2.23,4.87S184.54,41.55,184,43a2.45,2.45,0,0,0-.43.22,1.76,1.76,0,0,0-.34.27,4.23,4.23,0,0,0-.56.49.73.73,0,0,0-.2.48c0,.32.07.5.22.57s.37,0,.68-.15c-.41,1.27-.83,2.56-1.25,3.89s-.78,2.63-1.11,3.89-.6,2.45-.8,3.53a15.37,15.37,0,0,0-.31,2.74,18.07,18.07,0,0,0,.18,2.9,8.4,8.4,0,0,0,.85,2.79,5,5,0,0,0,2,2.1,6.71,6.71,0,0,0,3.54.84,10.49,10.49,0,0,0,3.52-.69,16.86,16.86,0,0,0,3.2-1.62,21.81,21.81,0,0,0,2.54-1.94,21.76,21.76,0,0,0,4-.67,34.76,34.76,0,0,0,3.93-1.3c1.27-.52,2.47-1.06,3.58-1.65A32.08,32.08,0,0,0,210.05,58L210,56.58a28.81,28.81,0,0,1-2.67,1.66c-1.08.59-2.23,1.14-3.45,1.66a27.41,27.41,0,0,1-3.54,1.3,11.59,11.59,0,0,1-3,.53A23.44,23.44,0,0,0,200.7,58a27.06,27.06,0,0,0,2.46-4.11,23.06,23.06,0,0,0,1.51-4,13.51,13.51,0,0,0,.51-3.43,9.9,9.9,0,0,0-.48-3.37,4.35,4.35,0,0,0-1.79-2.27,6.58,6.58,0,0,0-3.5-.83,9.33,9.33,0,0,0-2.63.46,16.58,16.58,0,0,0-3.26,1.39,19.07,19.07,0,0,0-3.41,2.37,18.59,18.59,0,0,0-3,3.43h-.21c.09-.28.22-.63.37-1.05l.51-1.32.51-1.38c.14-.38.29-.78.47-1.2s.33-.82.51-1.24c.91-.74,1.86-1.53,2.86-2.36s2-1.66,3-2.5,2-1.7,2.91-2.51q4.08-3.48,6.9-6.42a53.2,53.2,0,0,0,4.53-5.32,24.16,24.16,0,0,0,2.49-4.12A7.19,7.19,0,0,0,212.7,15.4ZM177.32,57.2a1.23,1.23,0,0,0-.11-.69.46.46,0,0,0-.35-.21h-.38a4.34,4.34,0,0,0-.76.47c-.44.32-1,.72-1.8,1.23s-1.68,1.06-2.74,1.65-2.22,1.16-3.53,1.73a16.76,16.76,0,0,1-2.07.77,19.7,19.7,0,0,1-2.62.63,15.18,15.18,0,0,1-2.76.27,4.84,4.84,0,0,1-2.75-.73,4.33,4.33,0,0,1-1.53-1.86,8.34,8.34,0,0,1-.65-2.46,18.53,18.53,0,0,1-.14-2.54,20.5,20.5,0,0,1,.76-5.39A26.48,26.48,0,0,1,157.94,45a23.31,23.31,0,0,1,3-4.32,14.48,14.48,0,0,1,3.45-3,7,7,0,0,1,3.58-1.11,1.46,1.46,0,0,1,1.14.33,1.54,1.54,0,0,1,.32,1.13,4.39,4.39,0,0,1-.06,1,8.38,8.38,0,0,1-.64,1.83l-.7,1.53a.81.81,0,0,0,.26.31.5.5,0,0,0,.3.11,4.61,4.61,0,0,0,1.47-.31,7.39,7.39,0,0,0,2.22-1.29,6.38,6.38,0,0,0,1.45-1.85,8.42,8.42,0,0,0,.72-2,8.68,8.68,0,0,0,.19-1.66,3,3,0,0,0-.45-1.8,1.92,1.92,0,0,0-1.16-.71,6.11,6.11,0,0,0-1.52-.13,9.4,9.4,0,0,0-2.64.5A23.27,23.27,0,0,0,165.29,35a30.38,30.38,0,0,0-3.91,2.42,28,28,0,0,0-3.82,3.32,36.79,36.79,0,0,0-4.66,5.92,29.75,29.75,0,0,0-3,6,17.63,17.63,0,0,0-1,5.56,10.8,10.8,0,0,0,.9,4.7,5.59,5.59,0,0,0,2.55,2.62,8.52,8.52,0,0,0,3.92.82,20.73,20.73,0,0,0,4.78-.63,35.5,35.5,0,0,0,4.8-1.59,46.44,46.44,0,0,0,4.42-2.09c1.38-.75,2.61-1.47,3.67-2.15s1.89-1.29,2.49-1.78S177.3,57.34,177.32,57.2Z" transform="translate(0 -2)"/><g class="cls-3"><rect class="cls-4" x="0.71" y="0.68" width="714.1" height="256.26"/></g><path class="cls-5" d="M683.63,85.36a212.69,212.69,0,0,1-11.34,19.43c-4.34,6.67-9.24,13.54-14.59,20.63s-10.32,13.39-15.15,19-9.37,10.62-13.61,14.85c-1.41,1.41-2.94,2.92-4.66,4.5s-3.68,3.34-5.87,5.26a35.12,35.12,0,0,1-5.73,4.19,11.46,11.46,0,0,1-4.79,1.71,1.62,1.62,0,0,1-1.72-1.07,7.31,7.31,0,0,1-.34-2.78c.25-6.29,2.17-13.7,5.74-22.16a194.07,194.07,0,0,1,15.57-28.68q10.38-16.19,23.11-25.07A57.66,57.66,0,0,1,678,84.59a10.32,10.32,0,0,1,3.6.39A13.56,13.56,0,0,0,683.63,85.36Zm18.74-2.82H686.45a38.73,38.73,0,0,0-5.22-1.28,24.69,24.69,0,0,0-5.82-.52A79.64,79.64,0,0,0,617.9,109.5a116.21,116.21,0,0,0-17.29,26,63.09,63.09,0,0,0-6.33,24.86,29,29,0,0,0,.85,8.47,13.13,13.13,0,0,0,3.43,6.16,9.12,9.12,0,0,0,6.5,2.83c3.1,0,6.21-1.37,9.42-3.21a58.75,58.75,0,0,0,9.75-7.1c3.31-2.94,6.72-6.12,10.1-9.72,6-6.37,11.43-12.84,16.43-19.17s9.69-12.53,14-18.57,8.6-11.9,12.67-17.46c-2.74,6.12-5.55,12.12-8.43,17.93s-5.57,11.38-8,16.69a146.19,146.19,0,0,0-6,14.72,37.94,37.94,0,0,0-2.4,12,18.52,18.52,0,0,0,1.54,7.88,11.71,11.71,0,0,0,3.85,4.75,8.26,8.26,0,0,0,5.14,1.75,15.74,15.74,0,0,0,5.9-2.09,43.06,43.06,0,0,0,6.34-4.07,54.31,54.31,0,0,0,5.73-5.14c2.16-2.2,4.29-4.44,6.34-6.76s4.1-4.76,6-7.36c4.64-6.4,6.25-11.28,9.12-18.49.14-.36-6.62,9.29-8.61,12.59a64.23,64.23,0,0,1-4.84,6.84c-2.32,2.91-5.23,6.45-9,10.36-1.69,1.74-3.6,3.34-5.48,5s-3.68,3-5.31,4.2a9.3,9.3,0,0,1-3.59,1.88,1.17,1.17,0,0,1-1.24-.68,3.37,3.37,0,0,1-.3-1.63c0-1.5.75-4.2,2.14-8.09s3.27-8.69,5.6-14.21,4.91-11.47,7.7-17.8,5.7-12.62,8.56-18.91,5.57-12.16,8-17.59S700.7,86.31,702.37,82.54Zm-155.24-4.4c-7,8.44-10.76,7.07-21.19,25.6-6.26,16.8-13.84,30.19-19.69,50.06-1.57,5.33-1.8,12.44,1.54,25,3.85-16.48,9.95-28.7,19.88-47.89,8.12-1.35,15.12-.93,18.11,1.1,1.42,1,3,2.93,4.85,5.8s4.19,5.74,5.94,11.28c2.08,6.56,3.95,11.95,5.47,16.19a33.83,33.83,0,0,0,4.82,9.47A7.69,7.69,0,0,0,573.1,178a8.1,8.1,0,0,0,4-1.2c7.19-4.2,11-9,13.12-16.74l5.15-19.2c.9-3.38-4.89,8.58-7.31,17.4-1.06,3.86-2.81,8.29-7.22,9.72-1.16-.47-2.38-2.05-3.68-4.74A84.49,84.49,0,0,1,572.89,152c-1.51-4.81-3.4-7.53-4.92-10.89a20.9,20.9,0,0,0-7.34-8.93,28.75,28.75,0,0,0-6.67-3.57,15.8,15.8,0,0,0-5.87-1.19l.11-.92a61.72,61.72,0,0,0,13.1-6.81c5-3.79,9.17-10.87,12.08-14.51a60.84,60.84,0,0,1,8.08-8.58c2.45-2.07,4.71-3.51,6.83-3.67a5.2,5.2,0,0,1,3.33,1,3.69,3.69,0,0,1,1.55,2.23c.24.92.72,1.58.9,2.24l1.43,5.34c.93-.47,1.72-6.94,2.25-10.68.28-2,.3-3.49.44-4.78s.18-2.23.19-2.81A4.51,4.51,0,0,0,597,81.8a7.08,7.08,0,0,0-5-1.44,16.6,16.6,0,0,0-8.53,2.89,28.06,28.06,0,0,0-7.28,7.34c-2.36,3.28-5.3,6.53-8.32,10.08S562,108,558.49,111.8a45.64,45.64,0,0,1-7.59,6.93,30.46,30.46,0,0,1-8.41,3.88c-3,.88-8,.86-12.1,1.43C535.53,108.48,536.76,91.14,547.13,78.14ZM439.2,169.58q10-20.6,19.42-36.24a237.82,237.82,0,0,1,18.06-26.41c11.56-14.38,19.78-21.42,24.65-21.57a1.64,1.64,0,0,1,1.84,1.07,12.94,12.94,0,0,1,.47,4.58A84.81,84.81,0,0,1,501,108.56a236,236,0,0,1-7.1,22.76,166.51,166.51,0,0,1-9.59,22.34c-3.42,6.42-7,12-11,16.18a22.6,22.6,0,0,1-6.46,4.36,18.28,18.28,0,0,1-8.17,2.06,25.91,25.91,0,0,1-7.75-1.2,38.54,38.54,0,0,1-6.42-2.57C442.62,171.51,440.82,170.57,439.2,169.58ZM451,80.74c-15.88-3.2-31.21,40.41-35.21,52-1.95,5.65,23.9-50.13,32.64-48.37a5.56,5.56,0,0,1,2.22.64c.55.4.93.86.86,1.41a51.12,51.12,0,0,1-2.4,7c-1.44,3.81-3.38,8.9-5.77,15.15s-5.08,13.47-8.05,21.57-6,16.86-9.24,26.19-6.34,19-9.42,29-6.2,19.91-8.51,30c-.9,3.92-1.18,7.49-1.71,10.44s-1,5.65-1.33,8a45.32,45.32,0,0,0-.56,6.5,28.18,28.18,0,0,0,.56,4.92,57.56,57.56,0,0,0,1.5,6.12c1.28,4.37,2.56,6.93,3.85,7.71,1-.3,1.72-1.24,2.14-2.79a49,49,0,0,0,1.15-6c.34-2.39.93-5,1.59-7.91,2.12-9.36,4.06-17.68,6-24.91s3.69-13.51,5.56-18.74,3.8-9.94,5.65-14.43,3.72-8.55,5.65-12.28a43.38,43.38,0,0,0,5.95,3.17,46.64,46.64,0,0,0,7,2.4,22.28,22.28,0,0,0,7.32,1.11c8.12-.73,15.62-4.24,22.51-9.63s13.21-12.95,18.83-22.72a174.05,174.05,0,0,0,12.92-27c2.95-8.09,4.61-15.36,4.8-21.78a18.46,18.46,0,0,0-1.5-7.36,16.88,16.88,0,0,0-4.37-6.25,12.12,12.12,0,0,0-7-3.08,10.18,10.18,0,0,0-4.41.86,31,31,0,0,0-6.59,3.76,81.71,81.71,0,0,0-9,7.71,126.2,126.2,0,0,0-13,15.4,279.13,279.13,0,0,0-16,25q-8.8,15.15-19.22,36.64a17,17,0,0,1,1.28-5.65q1.23-3.15,2.83-7.19c4.28-10.74,8-19.77,11-27.18s5.56-13.48,7.49-18.27,3.36-8.64,4.28-11.51a24,24,0,0,0,1.32-7A12.91,12.91,0,0,0,463.07,87a11.23,11.23,0,0,0-4.53-4.45C456.53,81.47,453.94,81.34,451,80.74ZM393.66,81A11.63,11.63,0,0,1,396,83.1a14.65,14.65,0,0,1,2.27,3.68,13.57,13.57,0,0,1,1,5.17,17.81,17.81,0,0,1-1.45,6.77,40.25,40.25,0,0,1-2.91,9.67,59.7,59.7,0,0,1-5.82,10.1,24.47,24.47,0,0,1-8.05,7.79A22.08,22.08,0,0,1,370.81,129a11.89,11.89,0,0,1-7.49-2.26,11.51,11.51,0,0,1-3.81-6.72q-1.53-7.71,2.31-17.72a39.1,39.1,0,0,1,10.79-16.18,60.21,60.21,0,0,1,5.22-3.38c1.54-.89,2.86-1.62,4-2.26a10.41,10.41,0,0,1,3.81-.73,23.65,23.65,0,0,1,3.64.21c.77.13,1.54.26,2.26.43A9.91,9.91,0,0,1,393.66,81Zm1-2.57c-3.38-.25-6.29-.34-8.73-.3a52.11,52.11,0,0,0-6.68.6c-2,.3-4.06.73-6.16,1.24a32.86,32.86,0,0,0-8.64,2.91,57.81,57.81,0,0,0-8.31,5.05A33.58,33.58,0,0,0,351,93.15a29.79,29.79,0,0,0-3.81,6.59,18.92,18.92,0,0,0-2.14,7.11,29.1,29.1,0,0,0,.34,8.3,20.2,20.2,0,0,0,5.18,10.27,21.75,21.75,0,0,0,10,5.65,29.83,29.83,0,0,0-4.11,1.54,28,28,0,0,0-5.22,3.51,89.52,89.52,0,0,0-7.87,7.53,31.57,31.57,0,0,0-4.84,5.69c-1.71,2.44-3.51,5.09-5.39,8s-3.81,5.65-5.78,8.35a48.14,48.14,0,0,1-5.9,6.72,11,11,0,0,1-5.82,3.08,5.13,5.13,0,0,1-2.91-.9,2.44,2.44,0,0,1-1.2-1.67,5.6,5.6,0,0,1-1.07-3.12,9,9,0,0,1,.81-4.07,22,22,0,0,0,2.87-4.45,12.62,12.62,0,0,0,1.2-4.28,24.27,24.27,0,0,0-.22-5.13,9.91,9.91,0,0,0-2.31-3.86,10.46,10.46,0,0,0-3.76-2.35,7.35,7.35,0,0,0-4.2-.21,11.63,11.63,0,0,0-4.62,3.33,13.44,13.44,0,0,0-2.82,5.82,20.65,20.65,0,0,0,0,8.31c.38,4.66,2.18,8.26,5.35,10.78s7.61,3.81,13.39,3.85a17.58,17.58,0,0,0,8.86-4.11,42.24,42.24,0,0,0,7.14-8c2.19-3.17,4.45-6.55,6.81-10.18a98.57,98.57,0,0,1,8-10.57c4.07-4.41,7.58-7.58,10.61-9.42s5.14-2.82,6.34-2.91a5.3,5.3,0,0,1,1.2-.21,2.93,2.93,0,0,1,.59,0H368a37.42,37.42,0,0,0,9.45-1.15,34.3,34.3,0,0,0,8.52-3.47,2.27,2.27,0,0,1-.51.9,3.07,3.07,0,0,0-.52.9c-4.49,9-7.92,16.52-10.27,22.38s-3.42,10.57-3.34,14.08q0,6.28,3.21,9.37c2.14,2,5.36,4.11,9.37,3.21,6.29-1.41,10.52-4.3,14.48-9.32,10.36-13.12,12.91-20,17.26-35.53,1-3.6-9.7,20.57-18.93,33.32a20.52,20.52,0,0,1-3.68,4c-1.32,1.06-2.19,3.44-7.33,4.41a2.08,2.08,0,0,1-2-.73,3.39,3.39,0,0,1-.6-2.09c-.17-.77.13-2.19.9-4.24a99.09,99.09,0,0,1,4-9.16c1.93-4.06,4.5-9.41,7.75-16.09s7.36-15,12.19-25S418.57,96,425.24,82H408.55a33.74,33.74,0,0,1-1.67,3.29c-.59,1.07-1.15,2.1-1.66,3.13a8.57,8.57,0,0,0-1.59-3.9,12.79,12.79,0,0,0-3.42-3.08A52,52,0,0,0,394.69,78.43ZM197,164.45a25.15,25.15,0,0,0,3-4.45,11.61,11.61,0,0,0,1.19-4.28,17.9,17.9,0,0,0-.3-5.14,9.16,9.16,0,0,0-5.86-6,7.6,7.6,0,0,0-4.15-.17,10.55,10.55,0,0,0-4.62,3.21,13.51,13.51,0,0,0-2.83,5.82,20.34,20.34,0,0,0,0,8.17,14.71,14.71,0,0,0,5.35,11.21q5.07,4.18,13.65,4.45A39,39,0,0,0,213.59,170a83,83,0,0,0,9.67-10.57c3-3.9,5.82-7.79,8.47-11.77s5.18-7.58,7.62-10.91q7.69-10.86,14.76-20.24t13.05-16.57a106.73,106.73,0,0,1,10.92-11.34c3.25-2.73,6-4.28,8.26-4.49a1.89,1.89,0,0,1,1.36.39,1.41,1.41,0,0,1,.43,1.15,24.83,24.83,0,0,1-1.37,3.64c-.81,1.75-2,4.06-3.51,6.89-1.54,3-3.08,6.16-4.7,9.37s-3.38,6.55-5.31,10.14c-4.24,8.3-7.75,15.24-10.57,20.76s-5,9.84-6.38,12.88q-4.23,8.85-3.85,13.09a19.53,19.53,0,0,0,.82,5.69,17.45,17.45,0,0,0,2.52,5.35,11,11,0,0,0,4.07,3.68,11.58,11.58,0,0,0,5.43,1.2,14,14,0,0,0,4.71-.77,16,16,0,0,0,4.45-2.57,46.5,46.5,0,0,0,5.22-4.87c1.67-1.67,3.42-3.56,5.22-5.61s3.77-4.28,5.82-6.72c2.18-2.69,3.85-4.88,5-6.59a11.25,11.25,0,0,0,1.92-3.68,2.15,2.15,0,0,0-.08-.81c-.09-.13-.3-.22-.69-.22-1,.26-3.34,2.83-6.93,7.71a77.48,77.48,0,0,1-5.52,7.1c-2,2.31-4.11,4.58-6.29,6.76a26.38,26.38,0,0,1-2.27,2c-.9.73-1.84,1.5-2.87,2.4a18.18,18.18,0,0,1-3.38,2.09,8,8,0,0,1-3,.73,3.22,3.22,0,0,1-3.33-3.34,11.93,11.93,0,0,1,1.49-4.15c1-2.05,2.53-5.05,4.58-9s4.71-9.24,7.92-15.75,7-14.59,11.43-24.22c1.71-2.95,3.16-5.52,4.45-7.74a35.16,35.16,0,0,0,2.74-5.61,22,22,0,0,0,1.75-4.83,24.41,24.41,0,0,0,.56-5.44c0-4.28-.9-7.66-2.61-10.14a9.12,9.12,0,0,0-7.41-4c-2.09-.47-4.62.21-7.57,2a54.23,54.23,0,0,0-9.63,7.75c-3.47,3.38-6.93,7.15-10.48,11.3s-6.85,8.34-10.06,12.58-6,8.09-8.47,11.68-4.33,6.42-5.65,8.56q-4.44,6.36-9.12,13.05c-3.08,4.49-6.16,8.69-9.16,12.54a73.08,73.08,0,0,1-8.73,9.59c-2.78,2.48-5.35,3.85-7.66,4.1a5.79,5.79,0,0,1-3.25-.89,2.29,2.29,0,0,1-1.11-1.67,4.3,4.3,0,0,1-1.07-2.91A9.61,9.61,0,0,1,197,164.45ZM176.44,80.23c-.64-.13-2.1.17-4.41.9s-5.47,1.8-9.45,3.21a54.1,54.1,0,0,0-11.94,6.12A89.84,89.84,0,0,0,138.7,100a69.75,69.75,0,0,0-10.44,13,70.72,70.72,0,0,0-7.54,16.69,69.1,69.1,0,0,0-3.08,19.56q.08,14.12,6.12,21.57c4.07,5,9.89,7.53,17.51,7.7a46.4,46.4,0,0,0,21.78-7.66q10.2-6.74,19-19a103,103,0,0,0,13.74-25,84.38,84.38,0,0,0,5.26-25.59c0-6.2-1-11.12-2.74-14.67s-4-5.44-6.76-5.61a7.45,7.45,0,0,0-6.25,4.19c-1.45,2.61-2.22,6.17-2.22,10.7a39.2,39.2,0,0,0,1.58,10.83A47.08,47.08,0,0,0,189.54,118a113.36,113.36,0,0,1-6.94,18.66,142.83,142.83,0,0,1-10.78,18.83c-4.24,6.29-8.69,11.13-13.31,14.46a29.64,29.64,0,0,1-14.68,5.82c-4.23,0-7.44-1.49-9.58-4.36S131,164.49,131,159.31a75.19,75.19,0,0,1,2.14-15.23A113.69,113.69,0,0,1,139,127a118,118,0,0,1,8.69-16.69,83.63,83.63,0,0,1,10.57-13.61,87.93,87.93,0,0,1,10.57-8.3c3-1.93,5.31-3.3,6.93-4.19s2.53-1.59,2.53-2.14a1.87,1.87,0,0,0-.43-1.29A1.64,1.64,0,0,0,176.44,80.23ZM99.94,33.79q-1.06-10,9.42-13.08a16,16,0,0,1,9.62.72,10,10,0,0,1,6.2,6.4c.16.47.43,1.55.83,3.22a7.56,7.56,0,0,1-1.15,5.52A109.14,109.14,0,0,1,115,50.88a29,29,0,0,0-6.75,14.66,25.94,25.94,0,0,0-12.48-9.7,96,96,0,0,1-15.1-7.63,8.16,8.16,0,0,1-3.86-4c-.55-1.47-.91-2.54-1.15-3.26a10.08,10.08,0,0,1,1.91-8.66,14.49,14.49,0,0,1,7.87-5.41C92.47,25.36,97.32,27.63,99.94,33.79Zm-39.8,89.53c6.59-7.57,11.48-9.06,18-6.63a15.66,15.66,0,0,1,6.76,6.16,9.37,9.37,0,0,1,1,8.35l-1.25,3a6.9,6.9,0,0,1-4,3.46,100.72,100.72,0,0,1-15.69,5,27.94,27.94,0,0,0-13.65,7.1,24.1,24.1,0,0,0-3.63-14.48,88.2,88.2,0,0,1-6.93-14.55,8,8,0,0,1-.56-5.13c.45-1.38.77-2.42,1-3.11A9.31,9.31,0,0,1,47.47,107a13.51,13.51,0,0,1,9,.56C62.65,110.42,65,115,60.14,123.32ZM714.81,5.64c-43.52,2.19-596.76.43-640.19,3.85-45,3.54-67,9.36-67,23.23,0,7.15,14.42,19.24,35,27,2.43-5.13,4.16-6.17,7.14-11.28,3.74-6.39,6.79-14.08,19.5-30.94q-5,10.2-9.73,20.71c-3.14,7-6.12,13.91-9,20.7l-.92,2.38c26.81,8.93,66.38,12.62,66.38,53.42,0,18.6-8.5,34.46-26.36,46.94-15.23,9.86-34.37,18.48-54.89,16.89C15.31,177,5.47,156.72,8.07,142.74c4.12-22.2,8.75-30,17.09-50.5,4-9.9,11.9-23.56,17.38-32.53C17.94,50.77.71,41.5.71,32.75c0-6.67,4-12.28,11.92-16.77s19.63-7.86,35-10.13c7.2-1,16.22-1.77,27-2.3s23-.87,36.84-.84ZM104.09,113.69c0-22.82-28.46-43.67-48.88-50.6-5.28-1.79-3-.9-5.71-1.81C45.37,71.06,40.67,82.72,37,92.52S29.6,112.36,26.1,122.61c-4.25,12.64-7.47,22.15-6,30.47,1.76,9.55,12.32,14.37,21,14.34,17.65-.06,25.15-4.19,42-14.69C99.67,140.47,104.09,130.54,104.09,113.69Z" transform="translate(0 -2)"/></svg>